<svg xmlns="http://www.w3.org/2000/svg" viewBox="0 0 611 606" width="611" height="606">
	<defs>
		<clipPath clipPathUnits="userSpaceOnUse" id="cp1">
			<path d="M-758 -130L682 -130L682 5055L-758 5055Z" />
		</clipPath>
		<linearGradient id="grd1" gradientUnits="userSpaceOnUse"  x1="218.473" y1="349.803" x2="282.061" y2="190.849">
			<stop offset="0" stop-color="#1c75bc"  />
			<stop offset="0.28" stop-color="#2077bc"  />
			<stop offset="0.54" stop-color="#2b7ebc"  />
			<stop offset="0.8" stop-color="#3e88bc"  />
			<stop offset="1" stop-color="#5394bc"  />
		</linearGradient>
	</defs>
	<style>
		tspan { white-space:pre }
		.shp0 { fill: #1791f2 } 
		.shp1 { opacity: 0.2;fill: #ffffff } 
		.shp2 { fill: #f4767a } 
		.shp3 { fill: #ed5561 } 
		.shp4 { fill: #d8395a } 
		.shp5 { fill: #ffffff } 
		.shp6 { opacity: 0.2;fill: #1791f2 } 
		.shp7 { fill: #933e31 } 
		.shp8 { fill: #1c75bc } 
		.shp9 { fill: #9d4d36 } 
		.shp10 { fill: #bbcee1 } 
		.shp11 { fill: #a7bcce } 
		.shp12 { fill: #2a87c6 } 
		.shp13 { fill: #e8ebf5 } 
		.shp14 { fill: #0f4463 } 
		.shp15 { fill: #0b3b56 } 
		.shp16 { fill: #1f5e77 } 
		.shp17 { fill: #07304b } 
		.shp18 { fill: url(#grd1) } 
		.shp19 { fill: #fed4bd } 
		.shp20 { fill: #f4c5a2 } 
		.shp21 { fill: #bdcefa } 
		.shp22 { fill: #9cb8fe } 
		.shp23 { fill: #ef4136 } 
		.shp24 { fill: #91a6b7 } 
		.shp25 { fill: #79ff68 } 
		.shp26 { fill: #50e85e } 
		.shp27 { fill: #3cc743 } 
		.shp28 { fill: #9263c1 } 
		.shp29 { fill: #8444b2 } 
		.shp30 { fill: #7231a3 } 
		.shp31 { fill: #527edd } 
		.shp32 { fill: #355ec9 } 
		.shp33 { fill: #2a53ad } 
		.shp34 { fill: #fcec32 } 
		.shp35 { fill: #f5d012 } 
		.shp36 { fill: #000000 } 
		.shp37 { fill: #f5faff } 
		.shp38 { fill: #eaa10c } 
		.shp39 { fill: #edf0f8 } 
		.shp40 { fill: #f0cec9 } 
		.shp41 { fill: #fffbf0 } 
		.shp42 { fill: #f5ddd8 } 
		.shp43 { fill: #dfbab8 } 
	</style>
	<g id="Psd-to-Angular" clip-path="url(#cp1)">
		<g id="usa-mapРесурс 1">
			<g id="Group" style="opacity: 0.4">
				<path id="Path" class="shp0" d="M294.17 74.08L294.17 76.86L305.86 83.59L305.86 80.81L294.17 74.08L294.17 74.08Z" />
				<path id="Path" class="shp0" d="M294.17 79.14L294.17 81.95L305.86 88.68L305.86 85.9L294.17 79.14L294.17 79.14Z" />
				<path id="Path" class="shp0" d="M294.17 84.24L294.17 87.02L305.86 93.77L305.86 90.97L294.17 84.24L294.17 84.24Z" />
				<path id="Path" class="shp0" d="M382.35 142.96L382.35 140.18L310.25 98.58L310.25 101.36L382.35 142.96L382.35 142.96Z" />
				<path id="Path" class="shp0" d="M294.17 89.33L294.17 92.11L305.86 98.84L305.86 96.06L294.17 89.33L294.17 89.33Z" />
				<path id="Path" class="shp0" d="M294.17 94.4L294.17 97.18L305.86 103.93L305.86 101.13L294.17 94.4L294.17 94.4Z" />
				<path id="Path" class="shp0" d="M382.35 148.05L382.35 145.27L310.25 103.67L310.25 106.45L382.35 148.05L382.35 148.05Z" />
				<path id="Path" class="shp0" d="M294.17 109.65L294.17 112.43L305.86 119.16L305.86 116.38L294.17 109.65L294.17 109.65Z" />
				<path id="Path" class="shp0" d="M294.17 114.71L294.17 117.49L305.86 124.25L305.86 121.47L294.17 114.71L294.17 114.71Z" />
				<path id="Path" class="shp0" d="M294.17 135.06L294.17 137.84L305.86 144.57L305.86 141.79L294.17 135.06L294.17 135.06Z" />
				<path id="Path" class="shp0" d="M294.17 140.13L294.17 142.91L305.86 149.64L305.86 146.86L294.17 140.13L294.17 140.13Z" />
				<path id="Path" class="shp0" d="M355.72 175.64L310.25 149.4L310.25 152.18L355.72 178.42L355.72 175.64L355.72 175.64Z" />
				<path id="Path" class="shp0" d="M358.13 177.02L358.13 179.8L382.35 193.78L382.35 191L358.13 177.02L358.13 177.02Z" />
				<path id="Path" class="shp0" d="M333.09 157.51L310.25 144.31L310.25 147.09L333.09 160.29L333.09 157.51L333.09 157.51Z" />
				<path id="Path" class="shp0" d="M335.5 158.89L335.5 161.67L382.35 188.69L382.35 185.91L335.5 158.89L335.5 158.89Z" />
				<path id="Path" class="shp0" d="M376.19 167.12L376.19 169.9L382.35 173.44L382.35 170.66L376.19 167.12L376.19 167.12Z" />
				<path id="Path" class="shp0" d="M342.65 142.67L310.25 123.99L310.25 126.77L342.65 145.45L342.65 142.67L342.65 142.67Z" />
				<path id="Path" class="shp0" d="M329.37 94.37L310.25 83.35L310.25 86.13L329.37 97.15L329.37 94.37L329.37 94.37Z" />
				<path id="Path" class="shp0" d="M360.71 112.45L331.76 95.75L331.76 98.53L360.71 115.23L360.71 112.45L360.71 112.45Z" />
				<path id="Path" class="shp0" d="M343.84 107.8L323.45 96.06L323.45 98.84L343.84 110.58L343.84 107.8L343.84 107.8Z" />
				<path id="Path" class="shp0" d="M365.23 120.14L346.23 109.18L346.23 111.96L365.23 122.93L365.23 120.14L365.23 120.14Z" />
				<path id="Path" class="shp0" d="M367.62 121.52L367.62 124.3L382.35 132.8L382.35 130.02L367.62 121.52L367.62 121.52Z" />
				<path id="Path" class="shp0" d="M314.02 95.67L314.02 98.45L329.37 107.31L329.37 104.53L314.02 95.67L314.02 95.67Z" />
				<path id="Path" class="shp0" d="M376.35 131.63L331.76 105.93L331.76 108.71L376.35 134.41L376.35 131.63L376.35 131.63Z" />
				<path id="Path" class="shp0" d="M350.81 132.15L321.68 115.36L321.68 118.14L350.81 134.93L350.81 132.15L350.81 132.15Z" />
				<path id="Path" class="shp0" d="M376.35 146.88L353.22 133.55L353.22 136.33L376.35 149.66L376.35 146.88L376.35 146.88Z" />
				<path id="Path" class="shp0" d="M373.78 160.65L345.04 144.08L345.04 146.86L373.78 163.43L373.78 160.65L373.78 160.65Z" />
				<path id="Path" class="shp0" d="M358.13 156.7L358.13 159.48L373.78 168.5L373.78 165.72L358.13 156.7L358.13 156.7Z" />
				<path id="Path" class="shp0" d="M315.89 132.33L310.25 129.08L310.25 131.86L315.89 135.11L315.89 132.33L315.89 132.33Z" />
				<path id="Path" class="shp0" d="M326.44 138.41L326.44 141.19L355.72 158.08L355.72 155.3L326.44 138.41L326.44 138.41Z" />
				<path id="Path" class="shp0" d="M324.05 137.03L318.28 133.71L318.28 136.49L324.05 139.81L324.05 137.03L324.05 137.03Z" />
				<path id="Path" class="shp0" d="M350.31 157.27L318.28 138.8L318.28 141.58L350.31 160.05L350.31 157.27L350.31 157.27Z" />
			</g>
			<g id="Group" style="opacity: 0.4">
				<path id="Path" class="shp0" d="M356.47 28.06L308.01 0L308.01 2.47L356.47 30.53L356.47 28.06L356.47 28.06Z" />
				<path id="Path" class="shp0" d="M308.01 7.3L382.35 50.3L382.35 47.83L308.01 4.83L308.01 7.3L308.01 7.3Z" />
				<path id="Path" class="shp0" d="M359.72 29.88L359.72 32.35L382.35 45.47L382.35 43L359.72 29.88L359.72 29.88Z" />
				<path id="Path" class="shp0" d="M356.47 37.49L308.01 9.43L308.01 11.9L356.47 39.96L356.47 37.49L356.47 37.49Z" />
				<path id="Path" class="shp0" d="M308.01 16.76L382.35 59.73L382.35 57.27L308.01 14.29L308.01 16.76L308.01 16.76Z" />
				<path id="Path" class="shp0" d="M359.72 41.78L382.35 54.9L382.35 52.43L359.72 39.34L359.72 41.78L359.72 41.78Z" />
				<path id="Path" class="shp0" d="M356.47 53.08L308.01 25.02L308.01 27.49L356.47 55.55L356.47 53.08L356.47 53.08Z" />
				<path id="Path" class="shp0" d="M308.01 32.35L382.35 75.32L382.35 72.86L308.01 29.88L308.01 32.35L308.01 32.35Z" />
				<path id="Path" class="shp0" d="M359.72 57.37L382.35 70.49L382.35 68.02L359.72 54.93L359.72 57.37L359.72 57.37Z" />
				<path id="Path" class="shp0" d="M356.47 62.54L308.01 34.48L308.01 36.95L356.47 65.01L356.47 62.54L356.47 62.54Z" />
				<path id="Path" class="shp0" d="M308.01 41.78L382.35 84.78L382.35 82.31L308.01 39.31L308.01 41.78L308.01 41.78Z" />
				<path id="Path" class="shp0" d="M359.72 66.83L382.35 79.92L382.35 77.48L359.72 64.36L359.72 66.83L359.72 66.83Z" />
				<path id="Path" class="shp0" d="M356.47 78.13L308.01 50.07L308.01 52.54L356.47 80.6L356.47 78.13L356.47 78.13Z" />
				<path id="Path" class="shp0" d="M308.01 57.37L382.35 100.37L382.35 97.9L308.01 54.9L308.01 57.37L308.01 57.37Z" />
				<path id="Path" class="shp0" d="M359.72 82.42L382.35 95.51L382.35 93.04L359.72 79.95L359.72 82.42L359.72 82.42Z" />
				<path id="Path" class="shp0" d="M356.47 87.56L308.01 59.5L308.01 61.97L356.47 90.03L356.47 87.56L356.47 87.56Z" />
				<path id="Path" class="shp0" d="M308.01 66.8L382.35 109.8L382.35 107.34L308.01 64.33L308.01 66.8L308.01 66.8Z" />
				<path id="Path" class="shp0" d="M359.72 91.85L382.35 104.97L382.35 102.5L359.72 89.38L359.72 91.85L359.72 91.85Z" />
			</g>
			<path id="Path" class="shp1" d="M225.75 63.35L189.56 42.56C188.74 42.05 187.71 42.03 186.87 42.52C186.04 43 185.54 43.91 185.58 44.87L185.58 88.08C185.55 90.22 186.69 92.21 188.54 93.28L224.74 114.19C225.56 114.76 226.64 114.8 227.5 114.3C228.36 113.8 228.87 112.85 228.79 111.86L228.79 68.62C228.8 66.44 227.64 64.43 225.75 63.35L225.75 63.35Z" />
			<path id="Path" class="shp2" d="M209.69 99.96L162.25 72.57C160.76 71.72 158.92 71.79 157.5 72.75L157.5 72.75L147.1 78.78L151.93 85.35L153.75 87.41L153.75 134.44C153.74 137.23 155.23 139.82 157.65 141.22L193.27 161.74L193.64 163.72L200.89 173.88L212.03 167.33L212.03 167.33L212.03 167.33L212.03 167.33C213.1 166.68 213.76 165.52 213.75 164.26L213.75 107.1C213.79 104.16 212.24 101.43 209.69 99.96L209.69 99.96Z" />
			<path id="Path" class="shp3" d="M198.6 106.53L150.58 78.78C149.5 78.19 148.19 78.2 147.12 78.83C146.06 79.45 145.4 80.59 145.39 81.82L145.39 139.29C145.38 142.1 146.88 144.68 149.31 146.08L197.25 173.83C198.36 174.48 199.74 174.49 200.86 173.84C201.98 173.2 202.66 172 202.65 170.71L202.65 113.55C202.65 110.65 201.11 107.98 198.6 106.53L198.6 106.53Z" />
			<path id="Path" class="shp4" d="M202.65 170.71L202.65 113.55C202.63 112.6 202.45 111.67 202.11 110.79L213.23 104.4C213.55 105.23 213.73 106.11 213.75 107L213.75 164.16C213.76 165.41 213.1 166.58 212.03 167.23L212.03 167.23L212.03 167.23L212.03 167.23L200.99 173.72C202.02 173.07 202.65 171.93 202.65 170.71Z" />
			<path id="Shape" fill-rule="evenodd" class="shp5" d="M187.12 150.05L181.58 146.78L178.2 136.98L164.33 128.98L161.24 134.93L155.47 131.71L170.9 106.24L187.12 150.05ZM170.88 117.29L166.28 125.55L176.1 131.21L170.9 117.29L170.88 117.29Z" />
			<g id="Group" style="opacity: 0.4">
				<path id="Path" class="shp0" d="M97.63 102.09L97.63 104.87L109.32 111.62L109.32 108.84L97.63 102.09L97.63 102.09Z" />
				<path id="Path" class="shp0" d="M97.63 107.18L97.63 109.96L109.32 116.69L109.32 113.91L97.63 107.18L97.63 107.18Z" />
				<path id="Path" class="shp0" d="M97.63 112.25L97.63 115.03L109.32 121.78L109.32 119L97.63 112.25L97.63 112.25Z" />
				<path id="Path" class="shp0" d="M185.82 170.97L185.82 168.19L113.71 126.61L113.71 129.39L185.82 170.97L185.82 170.97Z" />
				<path id="Path" class="shp0" d="M97.63 117.34L97.63 120.12L109.32 126.85L109.32 124.07L97.63 117.34L97.63 117.34Z" />
				<path id="Path" class="shp0" d="M97.63 122.41L97.63 125.21L109.32 131.94L109.32 129.16L97.63 122.41L97.63 122.41Z" />
				<path id="Path" class="shp0" d="M185.82 176.06L185.82 173.28L113.71 131.68L113.71 134.46L185.82 176.06L185.82 176.06Z" />
				<path id="Path" class="shp0" d="M97.63 137.66L97.63 140.44L109.32 147.19L109.32 144.41L97.63 137.66L97.63 137.66Z" />
				<path id="Path" class="shp0" d="M97.63 142.75L97.63 145.53L109.32 152.26L109.32 149.48L97.63 142.75L97.63 142.75Z" />
				<path id="Path" class="shp0" d="M97.63 163.07L97.63 165.85L109.32 172.58L109.32 169.8L97.63 163.07L97.63 163.07Z" />
				<path id="Path" class="shp0" d="M97.63 168.14L97.63 170.92L109.32 177.67L109.32 174.89L97.63 168.14L97.63 168.14Z" />
				<path id="Path" class="shp0" d="M159.18 203.65L113.71 177.41L113.71 180.19L159.18 206.43L159.18 203.65L159.18 203.65Z" />
				<path id="Path" class="shp0" d="M161.6 205.03L161.6 207.81L185.82 221.79L185.82 219.01L161.6 205.03L161.6 205.03Z" />
				<path id="Path" class="shp0" d="M136.55 185.52L113.71 172.34L113.71 175.12L136.55 188.3L136.55 185.52L136.55 185.52Z" />
				<path id="Path" class="shp0" d="M138.94 186.9L138.94 189.67L185.82 216.7L185.82 213.92L138.94 186.9L138.94 186.9Z" />
				<path id="Path" class="shp0" d="M179.66 195.13L179.66 197.91L185.82 201.47L185.82 198.69L179.66 195.13L179.66 195.13Z" />
				<path id="Path" class="shp0" d="M146.09 170.71L113.71 152L113.71 154.78L146.09 173.49L146.09 170.71L146.09 170.71Z" />
				<path id="Path" class="shp0" d="M132.84 122.38L113.71 111.36L113.71 114.14L132.84 125.16L132.84 122.38L132.84 122.38Z" />
				<path id="Path" class="shp0" d="M164.17 140.46L135.23 123.78L135.23 126.56L164.17 143.24L164.17 140.46L164.17 140.46Z" />
				<path id="Path" class="shp0" d="M147.31 135.81L126.91 124.07L126.91 126.85L147.31 138.59L147.31 135.81L147.31 135.81Z" />
				<path id="Path" class="shp0" d="M168.69 148.15L149.7 137.22L149.7 140L168.69 150.93L168.69 148.15L168.69 148.15Z" />
				<path id="Path" class="shp0" d="M171.08 149.53L171.08 152.31L185.82 160.81L185.82 158.03L171.08 149.53L171.08 149.53Z" />
				<path id="Path" class="shp0" d="M117.48 123.7L117.48 126.48L132.84 135.34L132.84 132.56L117.48 123.7L117.48 123.7Z" />
				<path id="Path" class="shp0" d="M179.81 159.64L135.23 133.94L135.23 136.72L179.81 162.44L179.81 159.64L179.81 159.64Z" />
				<path id="Path" class="shp0" d="M154.27 160.18L125.15 143.37L125.15 146.15L154.27 162.96L154.27 160.18L154.27 160.18Z" />
				<path id="Path" class="shp0" d="M179.81 174.89L156.69 161.56L156.69 164.34L179.81 177.67L179.81 174.89L179.81 174.89Z" />
				<path id="Path" class="shp0" d="M177.24 188.66L148.5 172.08L148.5 174.86L177.24 191.44L177.24 188.66L177.24 188.66Z" />
				<path id="Path" class="shp0" d="M161.6 184.71L161.6 187.49L177.24 196.53L177.24 193.75L161.6 184.71L161.6 184.71Z" />
				<path id="Path" class="shp0" d="M119.35 160.34L113.71 157.09L113.71 159.87L119.35 163.12L119.35 160.34L119.35 160.34Z" />
				<path id="Path" class="shp0" d="M129.9 166.45L129.9 169.23L159.18 186.12L159.18 183.34L129.9 166.45L129.9 166.45Z" />
				<path id="Path" class="shp0" d="M127.51 165.04L121.74 161.72L121.74 164.5L127.51 167.82L127.51 165.04L127.51 165.04Z" />
				<path id="Path" class="shp0" d="M153.78 185.28L121.74 166.81L121.74 169.59L153.78 188.06L153.78 185.28L153.78 185.28Z" />
			</g>
			<path id="Path" class="shp6" d="M446.06 138.25L409.87 117.47C409.05 116.96 408.03 116.94 407.19 117.42C406.36 117.9 405.86 118.8 405.89 119.76L405.89 162.99C405.86 165.13 406.98 167.11 408.83 168.19L445.02 188.97C445.85 189.55 446.94 189.6 447.82 189.09C448.69 188.59 449.19 187.62 449.1 186.61L449.1 143.53C449.1 141.36 447.94 139.35 446.06 138.25L446.06 138.25Z" />
			<path id="Path" class="shp6" d="M495.48 54.56L459.29 33.78C458.47 33.27 457.43 33.25 456.6 33.73C455.77 34.22 455.27 35.13 455.31 36.09L455.31 79.25C455.28 81.39 456.42 83.38 458.27 84.44L494.47 105.36C495.29 105.92 496.36 105.96 497.23 105.46C498.09 104.96 498.59 104.02 498.52 103.02L498.52 59.76C498.5 57.61 497.34 55.63 495.48 54.56L495.48 54.56Z" />
			<path id="Path" class="shp6" d="M607.23 281.03L571.04 260.24C570.22 259.73 569.19 259.72 568.35 260.2C567.52 260.69 567.02 261.59 567.06 262.56L567.06 305.87C567.03 308.01 568.17 310 570.03 311.07L606.19 331.85C607.02 332.43 608.1 332.48 608.98 331.98C609.85 331.48 610.35 330.52 610.27 329.52L610.27 286.31C610.28 284.13 609.12 282.11 607.23 281.03Z" />
			<path id="Path" class="shp6" d="M292.19 174.45L256.02 153.66C255.21 153.15 254.18 153.13 253.35 153.61C252.52 154.09 252.02 154.99 252.05 155.95L252.05 199.18C252.02 201.32 253.14 203.3 254.98 204.38L291.18 225.3C292.01 225.88 293.1 225.93 293.97 225.42C294.85 224.91 295.35 223.94 295.26 222.93L295.26 179.72C295.25 177.54 294.08 175.53 292.19 174.45Z" />
			<path id="Path" class="shp7" d="M155.96 530.47C146.35 530.47 149.49 523.27 149.49 523.27C135.25 518.9 128.24 521.32 128.24 521.35C126.12 528.89 125.35 536.74 125.98 544.55C125.98 546.06 127.02 546.97 128.42 547.49C136.22 550.34 143.07 552.24 157.34 550.84C167.73 549.82 178.98 540.08 176.46 530.05C174.88 523.87 165.71 530.39 155.96 530.47Z" />
			<path id="Path" class="shp8" d="M151.83 440.15C149.02 436.49 144.19 433.37 136.24 435.47L50.37 452.1L53.59 474.16C62.4 484.68 76.65 488.92 89.78 484.92C103.27 481.16 116.09 475.31 127.77 467.59L124.86 528.47C133.43 530.79 142.57 529.69 150.35 525.4C152.35 524.18 154.22 465.48 154.84 450.41C155.26 446.73 154.17 443.03 151.83 440.15Z" />
			<path id="Path" class="shp9" d="M197.2 548.08C187.22 548.08 190.49 540.6 190.49 540.6C175.68 536.08 168.41 538.6 168.41 538.6C166.2 546.43 165.4 554.6 166.04 562.71C166.04 564.27 167.13 565.31 168.64 565.75C176.62 568.71 183.87 570.69 198.68 569.23C209.59 568.17 221.15 558.06 218.53 547.69C216.84 541.25 207.3 547.98 197.2 548.08Z" />
			<path id="Path" class="shp10" d="M99.55 523.87L25.81 481.23L25.81 491.62L99.58 534.13L99.55 523.87L99.55 523.87Z" />
			<path id="Path" class="shp5" d="M92.85 442.72L25.81 481.23L99.55 523.87L166.67 485.31L92.85 442.72L92.85 442.72Z" />
			<path id="Path" class="shp11" d="M166.67 485.31L99.55 523.87L99.58 534.13L166.67 495.31L166.67 485.31L166.67 485.31Z" />
			<path id="Path" class="shp12" d="M192.91 454.28C190 450.49 185.11 447.24 176.67 449.45L87.47 466.65L90.82 489.57C99.96 500.46 114.71 504.85 128.32 500.74C142.33 496.84 155.63 490.77 167.76 482.74L164.74 545.95C173.64 548.36 183.13 547.22 191.19 542.76C193.3 541.51 195.25 480.55 195.87 464.81C196.32 461.05 195.26 457.26 192.91 454.28Z" />
			<path id="Path" class="shp13" d="M33.53 325.25L185.84 236.91C192.27 233.2 200.2 233.2 206.63 236.91L446.55 375.71C449.4 377.35 451.15 380.38 451.15 383.66C451.15 386.95 449.4 389.98 446.55 391.61L297.75 478.09C290.07 482.52 280.61 482.52 272.94 478.09L33.56 339.6C30.97 338.14 29.36 335.4 29.36 332.43C29.35 329.46 30.95 326.72 33.53 325.25Z" />
			<path id="Path" class="shp11" d="M33.56 339.52L272.94 478.09C280.61 482.52 290.07 482.52 297.75 478.09L446.66 391.64C449.5 390.02 451.25 386.99 451.23 383.72L451.23 395.33L451.23 395.33C451.21 398.55 449.48 401.52 446.68 403.12L297.78 489.57C290.1 494.01 280.64 494.01 272.96 489.57L33.58 351.08C31.01 349.62 29.42 346.87 29.45 343.91L29.45 343.91L29.45 332.53C29.48 335.42 31.05 338.08 33.56 339.52Z" />
			<path id="Path" class="shp10" d="M33.56 339.52L272.94 478.09C276.4 480.06 280.28 481.17 284.27 481.33L284.27 492.79C280.28 492.64 276.39 491.53 272.94 489.54L33.56 351.05C30.98 349.59 29.4 346.85 29.43 343.88L29.43 343.88L29.43 332.5C29.45 335.41 31.03 338.08 33.56 339.52Z" />
			<path id="Path" class="shp14" d="M146.06 357.24L172.05 342.27C173.26 341.57 174.75 341.57 175.97 342.27L255.63 388.44C256.16 388.76 256.48 389.33 256.48 389.94C256.48 390.55 256.16 391.12 255.63 391.43L230.4 406.03C228.96 406.87 227.19 406.87 225.75 406.03L146.06 359.92C145.59 359.63 145.3 359.13 145.3 358.58C145.3 358.03 145.59 357.52 146.06 357.24Z" />
			<path id="Path" class="shp15" d="M146.06 359.92L225.8 406.03C227.24 406.87 229.02 406.87 230.45 406.03L255.63 391.43C256.16 391.13 256.49 390.56 256.49 389.95L256.49 392.99L256.49 392.99C256.47 393.59 256.15 394.14 255.63 394.45L230.4 409.05C228.96 409.88 227.19 409.88 225.75 409.05L146.06 362.98C145.57 362.72 145.27 362.19 145.31 361.63L145.31 361.63L145.31 358.56C145.3 359.12 145.59 359.63 146.06 359.92Z" />
			<path id="Path" class="shp16" d="M171.63 346.48L174.85 344.61L178.54 346.72L175.32 348.59L171.63 346.48L171.63 346.48Z" />
			<path id="Path" class="shp16" d="M176.2 349.13L179.45 347.24L183.11 349.37L179.89 351.24L176.2 349.13L176.2 349.13Z" />
			<path id="Path" class="shp16" d="M180.8 351.76L184.02 349.89L187.71 352.02L184.49 353.89L180.8 351.76L180.8 351.76Z" />
			<path id="Path" class="shp16" d="M185.37 354.41L188.62 352.54L192.31 354.64L189.06 356.51L185.37 354.41L185.37 354.41Z" />
			<path id="Path" class="shp16" d="M189.97 357.06L193.22 355.16L196.89 357.29L193.66 359.16L189.97 357.06L189.97 357.06Z" />
			<path id="Path" class="shp16" d="M194.57 359.68L197.79 357.81L201.48 359.94L198.26 361.81L194.57 359.68L194.57 359.68Z" />
			<path id="Path" class="shp16" d="M199.15 362.33L202.39 360.46L206.06 362.57L202.84 364.44L199.15 362.33L199.15 362.33Z" />
			<path id="Path" class="shp16" d="M203.74 364.98L206.97 363.09L210.66 365.22L207.43 367.09L203.74 364.98L203.74 364.98Z" />
			<path id="Path" class="shp16" d="M208.32 367.61L211.57 365.74L215.23 367.87L212.01 369.74L208.32 367.61L208.32 367.61Z" />
			<path id="Path" class="shp16" d="M212.92 370.26L216.16 368.39L219.83 370.49L216.61 372.36L212.92 370.26L212.92 370.26Z" />
			<path id="Path" class="shp16" d="M217.52 372.88L220.74 371.01L224.43 373.14L221.21 375.01L217.52 372.88L217.52 372.88Z" />
			<path id="Path" class="shp16" d="M222.09 375.53L225.34 373.66L229 375.79L225.78 377.64L222.09 375.53L222.09 375.53Z" />
			<path id="Path" class="shp16" d="M229.91 376.28L233.6 378.41L230.38 380.29L226.69 378.18L229.91 376.28L229.91 376.28Z" />
			<path id="Path" class="shp16" d="M171.11 351.03L167.45 348.9L170.67 347.03L174.36 349.16L171.11 351.03L171.11 351.03Z" />
			<path id="Path" class="shp16" d="M178.93 351.78L175.71 353.65L172.02 351.55L175.27 349.68L178.93 351.78L178.93 351.78Z" />
			<path id="Path" class="shp16" d="M183.53 354.43L180.31 356.3L176.62 354.2L179.84 352.3L183.53 354.43L183.53 354.43Z" />
			<path id="Path" class="shp16" d="M188.1 357.08L184.88 358.95L181.19 356.82L184.44 354.95L188.1 357.08L188.1 357.08Z" />
			<path id="Path" class="shp16" d="M192.7 359.71L189.48 361.58L185.79 359.47L189.01 357.6L192.7 359.71L192.7 359.71Z" />
			<path id="Path" class="shp16" d="M197.3 362.36L194.05 364.23L190.36 362.12L193.61 360.23L197.3 362.36L197.3 362.36Z" />
			<path id="Path" class="shp16" d="M201.87 365.01L198.65 366.88L194.96 364.75L198.21 362.88L201.87 365.01L201.87 365.01Z" />
			<path id="Path" class="shp16" d="M206.47 367.63L203.25 369.5L199.56 367.4L202.78 365.53L206.47 367.63L206.47 367.63Z" />
			<path id="Path" class="shp16" d="M211.05 370.28L207.82 372.15L204.13 370.05L207.38 368.15L211.05 370.28L211.05 370.28Z" />
			<path id="Path" class="shp16" d="M215.64 372.93L212.42 374.8L208.73 372.67L211.96 370.8L215.64 372.93L215.64 372.93Z" />
			<path id="Path" class="shp16" d="M220.24 375.56L217 377.43L213.31 375.32L216.55 373.45L220.24 375.56L220.24 375.56Z" />
			<path id="Path" class="shp16" d="M224.82 378.21L221.59 380.08L217.91 377.97L221.13 376.08L224.82 378.21L224.82 378.21Z" />
			<path id="Path" class="shp16" d="M225.73 378.73L229.42 380.83L226.19 382.73L222.5 380.6L225.73 378.73L225.73 378.73Z" />
			<path id="Path" class="shp16" d="M166.93 353.45L163.24 351.34L166.49 349.47L170.15 351.57L166.93 353.45L166.93 353.45Z" />
			<path id="Path" class="shp16" d="M174.75 354.22L171.53 356.1L167.84 353.97L171.06 352.09L174.75 354.22L174.75 354.22Z" />
			<path id="Path" class="shp16" d="M172.41 356.62L175.66 354.74L179.35 356.85L176.1 358.72L172.41 356.62L172.41 356.62Z" />
			<path id="Path" class="shp16" d="M183.92 359.5L180.7 361.37L177.01 359.27L180.26 357.37L183.92 359.5L183.92 359.5Z" />
			<path id="Path" class="shp16" d="M188.52 362.15L185.3 364.02L181.61 361.89L184.83 360.02L188.52 362.15L188.52 362.15Z" />
			<path id="Path" class="shp16" d="M193.09 364.77L189.87 366.64L186.18 364.54L189.43 362.67L193.09 364.77L193.09 364.77Z" />
			<path id="Path" class="shp16" d="M197.69 367.42L194.47 369.29L190.78 367.19L194 365.29L197.69 367.42L197.69 367.42Z" />
			<path id="Path" class="shp16" d="M202.29 370.07L199.04 371.95L195.35 369.81L198.6 367.94L202.29 370.07L202.29 370.07Z" />
			<path id="Path" class="shp16" d="M206.86 372.7L203.64 374.57L199.95 372.46L203.2 370.59L206.86 372.7L206.86 372.7Z" />
			<path id="Path" class="shp16" d="M211.46 375.35L208.24 377.22L204.55 375.12L207.77 373.22L211.46 375.35L211.46 375.35Z" />
			<path id="Path" class="shp16" d="M216.03 378L212.81 379.87L209.12 377.74L212.37 375.87L216.03 378L216.03 378Z" />
			<path id="Path" class="shp16" d="M213.72 380.39L216.94 378.52L220.63 380.62L217.41 382.49L213.72 380.39L213.72 380.39Z" />
			<path id="Path" class="shp16" d="M221.54 381.14L225.23 383.27L221.98 385.14L218.29 383.01L221.54 381.14L221.54 381.14Z" />
			<path id="Path" class="shp16" d="M162.74 355.89L159.05 353.76L162.3 351.89L165.97 354.02L162.74 355.89L162.74 355.89Z" />
			<path id="Path" class="shp16" d="M163.65 356.41L166.87 354.51L170.56 356.64L167.34 358.51L163.65 356.41L163.65 356.41Z" />
			<path id="Path" class="shp16" d="M168.23 359.03L171.47 357.16L175.14 359.29L171.92 361.16L168.23 359.03L168.23 359.03Z" />
			<path id="Path" class="shp16" d="M172.82 361.68L176.07 359.81L179.74 361.92L176.51 363.79L172.82 361.68L172.82 361.68Z" />
			<path id="Path" class="shp16" d="M177.4 364.33L180.65 362.44L184.34 364.57L181.09 366.44L177.4 364.33L177.4 364.33Z" />
			<path id="Path" class="shp16" d="M182 366.96L185.24 365.09L188.91 367.22L185.69 369.09L182 366.96L182 366.96Z" />
			<path id="Path" class="shp16" d="M186.6 369.61L189.82 367.74L193.51 369.84L190.29 371.71L186.6 369.61L186.6 369.61Z" />
			<path id="Path" class="shp16" d="M191.17 372.26L194.42 370.36L198.08 372.49L194.86 374.36L191.17 372.26L191.17 372.26Z" />
			<path id="Path" class="shp16" d="M195.77 374.88L198.99 373.01L202.68 375.14L199.46 377.01L195.77 374.88L195.77 374.88Z" />
			<path id="Path" class="shp16" d="M200.34 377.53L203.59 375.66L207.28 377.77L204.03 379.64L200.34 377.53L200.34 377.53Z" />
			<path id="Path" class="shp16" d="M204.94 380.18L208.19 378.29L211.85 380.42L208.63 382.29L204.94 380.18L204.94 380.18Z" />
			<path id="Path" class="shp16" d="M209.54 382.81L212.76 380.94L216.45 383.07L213.23 384.94L209.54 382.81L209.54 382.81Z" />
			<path id="Path" class="shp16" d="M217.36 383.59L221.02 385.69L217.8 387.56L214.11 385.46L217.36 383.59L217.36 383.59Z" />
			<path id="Path" class="shp16" d="M158.56 358.3L154.87 356.2L158.12 354.3L161.78 356.43L158.56 358.3L158.56 358.3Z" />
			<path id="Path" class="shp16" d="M159.44 358.82L162.69 356.95L166.38 359.06L163.16 360.93L159.44 358.82L159.44 358.82Z" />
			<path id="Path" class="shp16" d="M164.04 361.47L167.29 359.6L170.95 361.71L167.73 363.58L164.04 361.47L164.04 361.47Z" />
			<path id="Path" class="shp16" d="M168.64 364.1L171.86 362.23L175.55 364.36L172.33 366.23L168.64 364.1L168.64 364.1Z" />
			<path id="Path" class="shp16" d="M173.21 366.75L176.46 364.88L180.13 367.01L176.9 368.88L173.21 366.75L173.21 366.75Z" />
			<path id="Path" class="shp16" d="M177.81 369.4L181.06 367.5L184.73 369.63L181.5 371.5L177.81 369.4L177.81 369.4Z" />
			<path id="Path" class="shp16" d="M182.39 372.02L185.63 370.15L189.32 372.28L186.08 374.15L182.39 372.02L182.39 372.02Z" />
			<path id="Path" class="shp16" d="M186.99 374.67L190.23 372.8L193.9 374.91L190.68 376.78L186.99 374.67L186.99 374.67Z" />
			<path id="Path" class="shp16" d="M191.58 377.32L194.81 375.43L198.5 377.56L195.27 379.43L191.58 377.32L191.58 377.32Z" />
			<path id="Path" class="shp16" d="M196.16 379.95L199.41 378.08L203.07 380.21L199.85 382.08L196.16 379.95L196.16 379.95Z" />
			<path id="Path" class="shp16" d="M200.76 382.6L203.98 380.73L207.67 382.83L204.45 384.7L200.76 382.6L200.76 382.6Z" />
			<path id="Path" class="shp16" d="M205.33 385.25L208.58 383.35L212.27 385.48L209.02 387.35L205.33 385.25L205.33 385.25Z" />
			<path id="Path" class="shp16" d="M213.18 386L216.84 388.13L213.62 390L209.93 387.87L213.18 386L213.18 386Z" />
			<path id="Path" class="shp16" d="M153.91 356.75L157.6 358.85L154.38 360.72L150.69 358.62L153.91 356.75L153.91 356.75Z" />
			<path id="Path" class="shp16" d="M162.17 361.5L158.95 363.37L155.26 361.24L158.51 359.37L162.17 361.5L162.17 361.5Z" />
			<path id="Path" class="shp16" d="M166.77 364.15L163.55 366.02L159.86 363.89L163.08 362.02L166.77 364.15L166.77 364.15Z" />
			<path id="Path" class="shp16" d="M171.37 366.77L168.15 368.65L164.46 366.54L167.68 364.64L171.37 366.77L171.37 366.77Z" />
			<path id="Path" class="shp16" d="M175.94 369.42L172.72 371.3L169.03 369.17L172.28 367.29L175.94 369.42L175.94 369.42Z" />
			<path id="Path" class="shp16" d="M180.54 372.05L177.32 373.92L173.63 371.82L176.85 369.94L180.54 372.05L180.54 372.05Z" />
			<path id="Path" class="shp16" d="M181.45 372.59L186.02 375.22L186.05 375.22L186.93 375.74L190.62 377.87L190.62 377.87L192.49 378.93L195.22 380.49L195.22 380.49L198.11 382.18L203.48 385.27L200.26 387.15L194.65 383.9L191.97 382.39L191.97 382.39L189.19 380.78L187.38 379.74L187.4 379.74L183.76 377.66L182.8 377.09L182.8 377.09L178.2 374.47L181.45 372.59L181.45 372.59Z" />
			<path id="Path" class="shp16" d="M208.06 387.9L204.84 389.77L201.15 387.66L204.39 385.79L208.06 387.9L208.06 387.9Z" />
			<path id="Path" class="shp16" d="M212.66 390.55L209.43 392.42L205.75 390.32L208.97 388.42L212.66 390.55L212.66 390.55Z" />
			<path id="Path" class="shp16" d="M235.86 383.46L239.08 381.58L242.77 383.69L239.55 385.56L235.86 383.46L235.86 383.46Z" />
			<path id="Path" class="shp16" d="M240.46 386.11L243.68 384.21L247.37 386.34L244.12 388.21L240.46 386.11L240.46 386.11Z" />
			<path id="Path" class="shp16" d="M245.03 388.73L248.28 386.86L251.94 388.99L248.72 390.86L245.03 388.73L245.03 388.73Z" />
			<path id="Path" class="shp16" d="M238.59 386.13L235.37 388L231.68 385.87L234.9 384L238.59 386.13L238.59 386.13Z" />
			<path id="Path" class="shp16" d="M243.16 388.76L239.94 390.63L236.25 388.52L239.5 386.65L243.16 388.76L243.16 388.76Z" />
			<path id="Path" class="shp16" d="M247.76 391.41L244.54 393.28L240.85 391.17L244.07 389.28L247.76 391.41L247.76 391.41Z" />
			<path id="Path" class="shp16" d="M234.4 388.55L231.16 390.42L227.49 388.31L230.71 386.42L234.4 388.55L234.4 388.55Z" />
			<path id="Path" class="shp16" d="M238.98 391.2L235.76 393.07L232.07 390.94L235.31 389.07L238.98 391.2L238.98 391.2Z" />
			<path id="Path" class="shp16" d="M243.58 393.82L240.35 395.69L236.66 393.59L239.89 391.72L243.58 393.82L243.58 393.82Z" />
			<path id="Path" class="shp16" d="M223.28 390.73L226.53 388.86L230.22 390.96L226.97 392.84L223.28 390.73L223.28 390.73Z" />
			<path id="Path" class="shp16" d="M227.88 393.38L231.1 391.48L234.79 393.61L231.57 395.49L227.88 393.38L227.88 393.38Z" />
			<path id="Path" class="shp16" d="M232.46 396.01L235.7 394.13L239.39 396.27L236.15 398.14L232.46 396.01L232.46 396.01Z" />
			<path id="Path" class="shp16" d="M219.1 393.15L222.35 391.28L226.01 393.41L222.79 395.28L219.1 393.15L219.1 393.15Z" />
			<path id="Path" class="shp16" d="M223.7 395.8L226.92 393.93L230.61 396.03L227.39 397.9L223.7 395.8L223.7 395.8Z" />
			<path id="Path" class="shp16" d="M228.27 398.45L231.52 396.55L235.21 398.68L231.96 400.55L228.27 398.45L228.27 398.45Z" />
			<path id="Path" class="shp16" d="M221.83 395.82L218.61 397.69L214.92 395.59L218.17 393.72L221.83 395.82L221.83 395.82Z" />
			<path id="Path" class="shp16" d="M226.43 398.47L223.21 400.34L219.52 398.21L222.74 396.34L226.43 398.47L226.43 398.47Z" />
			<path id="Path" class="shp16" d="M203.41 332.43L228.84 317.67C229.92 317.04 231.25 317.04 232.33 317.67L292.66 352.48C293.11 352.76 293.38 353.26 293.38 353.78C293.38 354.31 293.11 354.8 292.66 355.08L267.79 369.53C266.51 370.26 264.94 370.26 263.66 369.53L203.41 334.82C202.98 334.57 202.71 334.11 202.71 333.62C202.71 333.13 202.98 332.67 203.41 332.43L203.41 332.43Z" />
			<path id="Path" class="shp17" d="M203.41 334.82L263.66 369.58C264.94 370.31 266.51 370.31 267.79 369.58L292.66 355.13C293.13 354.86 293.41 354.35 293.41 353.81L293.41 356.9L293.41 356.9C293.41 357.43 293.12 357.91 292.66 358.17L267.79 372.62C266.52 373.38 264.93 373.38 263.66 372.62L203.41 337.91C202.98 337.66 202.73 337.2 202.73 336.71L202.73 336.71L202.73 333.62C202.73 334.11 202.98 334.57 203.41 334.82Z" />
			<path id="Path" class="shp15" d="M203.41 334.82L263.66 369.58C264.23 369.91 264.87 370.1 265.53 370.13L265.53 373.22C264.87 373.19 264.23 373.01 263.66 372.67L203.41 337.91C202.98 337.66 202.73 337.2 202.73 336.71L202.73 336.71L202.73 333.62C202.73 334.11 202.98 334.57 203.41 334.82Z" />
			<path id="Path" class="shp14" d="M269.38 334.76L222.5 307.61L222.5 330.84L269.38 357.97L269.38 334.76L269.38 334.76Z" />
			<path id="Path" class="shp17" d="M229.03 303.87L222.5 307.61L269.38 334.76L275.93 331L229.03 303.87L229.03 303.87Z" />
			<path id="Path" class="shp17" d="M275.93 331L269.38 334.76L269.38 357.97L275.93 354.17L275.93 331L275.93 331Z" />
			<path id="Path" class="shp18" d="M175.09 189.39L317.63 272.07L317.63 376.93L175.09 293.94L175.09 189.39L175.09 189.39Z" />
			<path id="Path" class="shp17" d="M317.63 272.07L322.36 269.18L322.36 374.08L317.63 376.93L317.63 272.07L317.63 272.07Z" />
			<path id="Path" class="shp16" d="M175.09 189.39L179.94 186.58L322.36 269.18L317.63 272.07L175.09 189.39L175.09 189.39Z" />
			<path id="Shape" fill-rule="evenodd" class="shp15" d="M317.6 272.07L317.6 376.93L175.09 293.94L175.09 189.39L317.6 272.07ZM314.25 274.02L178.46 195.26L178.46 292L314.22 371.06L314.25 274.02Z" />
			<path id="Path" class="shp19" d="M122.31 318.89C120.86 333.85 109.79 345.03 97.63 343.83C85.47 342.64 76.84 329.52 78.33 314.55C79.81 299.58 90.85 288.38 102.98 289.58C115.12 290.77 123.8 304 122.31 318.89Z" />
			<path id="Path" class="shp20" d="M140.48 353.81C140.48 353.81 145.67 355.08 147.6 355.26C149.52 355.45 156.38 356.9 159.21 356.02C162.04 355.13 156.61 353.29 155.39 352.3C154.17 351.31 154.14 348.87 157 348.01C159.86 347.16 166.36 347.57 169.78 347.08C173.21 346.59 166.38 336.22 160.79 335.18C155.61 334.13 150.22 334.85 145.49 337.23C140.74 339.6 138.14 343.55 135.93 344.33L140.48 353.81Z" />
			<path id="Path" class="shp21" d="M141.1 339.65L104.93 348.72L103.11 371.66L145.78 357.06C146.69 348.92 141.1 339.65 141.1 339.65Z" />
			<path id="Path" class="shp21" d="M51.98 349.37C51.98 349.37 41.97 361.97 51.98 379.3C51.98 379.3 58.97 388.96 78.14 379.51L51.98 349.37Z" />
			<path id="Path" class="shp22" d="M81.55 334.66C81.55 334.66 97.14 333.59 109.32 342.14C110.02 343.85 111.2 345.31 112.73 346.35C115.17 347.96 127.3 352.82 127.3 352.82C127.3 352.82 121.95 423.96 128.08 458.57C128.08 458.57 101.76 479.15 60.53 458.57C60.53 458.57 54.52 371.24 51.87 349.44C51.98 349.37 58.84 340.9 81.55 334.66Z" />
			<path id="Path" class="shp10" d="M74.74 452.08L1 409.44L25.81 481.33L99.58 523.87L74.74 452.08L74.74 452.08Z" />
			<path id="Path" class="shp5" d="M9.13 404.71L1 409.44L74.74 452.08L82.98 447.3L9.13 404.71L9.13 404.71Z" />
			<path id="Path" class="shp11" d="M82.98 447.3L74.74 452.08L99.58 523.87L107.89 519.09L82.98 447.3L82.98 447.3Z" />
			<path id="Path" class="shp20" d="M189.06 385.3C189.06 385.3 193.09 381.25 194.62 380.1C196.16 378.96 201.59 373.84 204.6 373.17C207.62 372.49 202.47 377.74 201.85 379.38C201.22 381.01 204.94 378.08 207.77 377.01C210.93 375.96 214.36 376.08 217.44 377.35C224.43 379.95 224.09 393.8 218.37 392.13C208.99 389.54 204.78 396.86 199.17 398.45C196.61 399.1 194 399.59 191.38 399.9L189.06 385.3Z" />
			<path id="Path" class="shp21" d="M127.3 352.82L157.78 393.23L189.48 383.87C189.48 383.87 196.29 392.45 194.08 401.54L151.7 418.01L117.4 380.18C117.4 380.18 105.89 356.2 127.3 352.82Z" />
			<path id="Path" class="shp9" d="M110.31 276.8C110.31 276.8 112.65 282.41 101.42 283.94C90.2 285.47 76.35 291.01 72.69 302.88C70.35 310.47 73.08 318.47 76.87 325.2C78.15 327.49 79.64 329.67 81.31 331.7C86.99 332.74 92.86 331.73 97.86 328.84C101.69 326.01 104.75 322.28 106.78 317.98C106.78 317.98 113.45 320.76 115.53 315.2C117.07 311.12 121.9 310 124.52 307.87C124.52 307.87 139.67 283.21 110.31 276.8Z" />
			<path id="Path" class="shp10" d="M528.84 491.96L479.97 463.61L479.97 481.9L528.84 510.17L528.84 491.96L528.84 491.96Z" />
			<path id="Path" class="shp5" d="M530.48 434.59L479.97 463.61L528.84 491.96L579.41 462.91L530.48 434.59L530.48 434.59Z" />
			<path id="Path" class="shp11" d="M579.41 462.91L528.84 491.96L528.84 510.17L579.41 480.92L579.41 462.91L579.41 462.91Z" />
			<path id="Path" class="shp10" d="M528.84 462.08L479.97 433.71L479.97 452L528.84 480.27L528.84 462.08L528.84 462.08Z" />
			<path id="Path" class="shp5" d="M530.48 404.68L479.97 433.71L528.84 462.08L579.41 433L530.48 404.68L530.48 404.68Z" />
			<path id="Path" class="shp11" d="M579.41 433L528.84 462.08L528.84 480.27L579.41 451.01L579.41 433L579.41 433Z" />
			<path id="Path" class="shp10" d="M446.19 539.82L397.34 511.45L397.34 529.74L446.22 558.01L446.19 539.82L446.19 539.82Z" />
			<path id="Path" class="shp5" d="M447.85 482.42L397.34 511.45L446.19 539.82L496.78 510.75L447.85 482.42L447.85 482.42Z" />
			<path id="Path" class="shp11" d="M496.78 510.75L446.19 539.82L446.22 558.01L496.78 528.75L496.78 510.75L496.78 510.75Z" />
			<path id="Path" class="shp10" d="M446.19 509.91L397.34 481.57L397.34 499.83L446.22 528.13L446.19 509.91L446.19 509.91Z" />
			<path id="Path" class="shp5" d="M447.85 452.54L397.34 481.57L446.19 509.91L496.78 480.87L447.85 452.54L447.85 452.54Z" />
			<path id="Path" class="shp11" d="M496.78 480.87L446.19 509.91L446.22 528.13L496.78 498.87L496.78 480.87L496.78 480.87Z" />
			<path id="Path" class="shp10" d="M363.57 587.66L314.72 559.31L314.72 577.57L363.57 605.87L363.57 587.66L363.57 587.66Z" />
			<path id="Path" class="shp5" d="M365.23 530.28L314.72 559.31L363.57 587.66L414.15 558.61L365.23 530.28L365.23 530.28Z" />
			<path id="Path" class="shp11" d="M414.15 558.61L363.57 587.66L363.57 605.87L414.15 576.61L414.15 558.61L414.15 558.61Z" />
			<path id="Path" class="shp10" d="M363.57 557.75L314.72 529.4L314.72 547.69L363.57 575.96L363.57 557.75L363.57 557.75Z" />
			<path id="Path" class="shp5" d="M365.23 500.38L314.72 529.4L363.57 557.75L414.15 528.7L365.23 500.38L365.23 500.38Z" />
			<path id="Path" class="shp11" d="M414.15 528.7L363.57 557.75L363.57 575.96L414.15 546.71L414.15 528.7L414.15 528.7Z" />
			<path id="Shape" fill-rule="evenodd" class="shp8" d="M378.82 539.85L375.75 538.08C373.44 538.96 371.02 539.53 368.55 539.79L368.55 542.39L361.12 542.39L361.12 539.79C358.66 539.53 356.24 538.95 353.93 538.08L350.89 539.85L345.69 536.78L348.76 535.01C347.39 533.93 346.35 532.49 345.74 530.86L341.38 530.86L341.38 526.54L345.69 526.54C346.29 524.91 347.31 523.47 348.65 522.36L345.59 520.59L350.78 517.55L353.85 519.32C356.16 518.43 358.58 517.86 361.05 517.61L361.05 515.01L368.5 515.01L368.5 517.61C370.97 517.86 373.39 518.44 375.7 519.32L378.74 517.55L383.94 520.59L380.87 522.39C382.24 523.47 383.28 524.91 383.88 526.54L388.15 526.54L388.15 530.86L383.83 530.86C383.23 532.48 382.21 533.92 380.87 535.01L383.94 536.81L378.82 539.85ZM357.88 532.65C362.23 534.86 367.37 534.86 371.72 532.65C375.52 530.44 375.49 526.86 371.72 524.65C367.38 522.44 362.24 522.44 357.9 524.65C354.08 526.86 354.11 530.44 357.9 532.65L357.88 532.65Z" />
			<path id="Path" class="shp23" d="M451.57 468.32L456.32 478.45L461.08 488.61L443.54 485.88L426 483.18L438.79 475.75L451.57 468.32L451.57 468.32Z" />
			<path id="Path" class="shp24" d="M511.36 430.82C508.76 429.32 509.9 427.08 514.94 424.17C517 422.94 519.25 422.07 521.59 421.57C523.19 421.12 524.9 421.27 526.4 421.99C526.92 422.27 527.35 422.67 527.67 423.16C527.92 423.57 528.12 424 528.27 424.46L532.9 423.34C532.64 422.58 532.22 421.89 531.67 421.31C531.1 420.72 530.44 420.21 529.73 419.81C527.1 418.37 524.07 417.82 521.1 418.25C517.42 418.7 513.88 419.93 510.71 421.86C508.03 423.07 505.84 425.15 504.5 427.76C503.87 429.64 504.78 431.31 507.22 432.75C508.82 433.67 510.59 434.27 512.42 434.49L516.01 432.41C514.37 432.16 512.8 431.63 511.36 430.82L511.36 430.82Z" />
			<path id="Path" class="shp24" d="M533.31 436.51C533.75 435.41 533.75 434.18 533.31 433.08C532.98 432.34 532.85 431.53 532.95 430.72C533.15 430.07 533.61 429.53 534.22 429.24C534.92 428.84 535.7 428.6 536.51 428.54C537.26 428.47 538.02 428.64 538.66 429.03C539.21 429.31 539.68 429.71 540.04 430.2C540.33 430.61 540.58 431.05 540.79 431.5L545.37 430.38C544.65 428.84 543.44 427.58 541.94 426.8C540.17 425.78 538.16 425.26 536.12 425.31C534.02 425.34 531.96 425.91 530.14 426.98C529.32 427.42 528.59 428 527.96 428.69C527.54 429.23 527.25 429.85 527.1 430.51C527.03 431.28 527.13 432.06 527.39 432.8C527.73 433.62 527.84 434.52 527.7 435.4C527.54 436.08 527.07 436.66 526.43 436.95C524.97 437.84 523.15 437.84 521.7 436.95C520.34 436.17 519.32 434.93 518.81 433.45L514.81 435.76C515.7 437.24 517 438.44 518.55 439.21C520.39 440.3 522.5 440.87 524.63 440.85C526.82 440.78 528.95 440.16 530.82 439.03C531.87 438.45 532.74 437.57 533.31 436.51L533.31 436.51Z" />
			<path id="Path" class="shp24" d="M554.44 433.91C552.67 432.9 550.66 432.38 548.62 432.43C546.51 432.47 544.46 433.04 542.64 434.1C541.83 434.54 541.1 435.12 540.48 435.81C540.04 436.32 539.75 436.94 539.63 437.6C539.53 438.39 539.63 439.18 539.91 439.92C540.24 440.74 540.34 441.64 540.22 442.51C540.05 443.2 539.59 443.77 538.95 444.07C538.24 444.49 537.44 444.72 536.61 444.75C535.77 444.76 534.94 444.54 534.22 444.1C532.86 443.32 531.83 442.07 531.31 440.59L527.34 442.9C528.21 444.4 529.5 445.6 531.05 446.36C532.89 447.45 534.99 448.01 537.13 447.97C539.32 447.93 541.46 447.31 543.34 446.18C544.43 445.63 545.34 444.77 545.94 443.71C546.41 442.62 546.41 441.39 545.94 440.31C545.61 439.56 545.5 438.75 545.6 437.94C545.79 437.29 546.25 436.75 546.87 436.46C547.57 436.04 548.35 435.8 549.16 435.76C549.91 435.7 550.67 435.87 551.32 436.25C551.85 436.54 552.31 436.94 552.67 437.42C552.96 437.82 553.21 438.25 553.42 438.7L558 437.6C557.26 436.01 556 434.71 554.44 433.91L554.44 433.91Z" />
			<path id="Path" class="shp25" d="M527.75 270.82L480.28 243.43C478.8 242.59 476.96 242.66 475.55 243.62L475.55 243.62L465.16 249.64L469.99 256.22L471.78 258.27L471.78 305.3C471.78 308.1 473.28 310.69 475.71 312.08L511.23 332.61L511.59 334.58L518.84 344.74L529.99 338.19L529.99 338.19L529.99 338.19L529.99 338.19C531.05 337.54 531.7 336.38 531.7 335.13L531.7 277.96C531.77 275.05 530.26 272.32 527.75 270.82L527.75 270.82Z" />
			<path id="Path" class="shp26" d="M516.66 277.34L468.69 249.64C467.61 249.05 466.3 249.07 465.23 249.69C464.17 250.31 463.51 251.45 463.5 252.68L463.5 310.16C463.49 312.96 464.99 315.55 467.42 316.94L515.44 344.69C516.55 345.34 517.93 345.35 519.05 344.7C520.16 344.06 520.85 342.86 520.84 341.57L520.84 284.41C520.83 281.47 519.23 278.76 516.66 277.34L516.66 277.34Z" />
			<path id="Path" class="shp27" d="M520.66 341.57L520.66 284.41C520.64 283.45 520.45 282.51 520.09 281.63L531.23 275.24C531.56 276.07 531.73 276.95 531.75 277.84L531.75 335C531.75 336.25 531.1 337.41 530.04 338.06L530.04 338.06L530.04 338.06L530.04 338.06L519 344.56C520.02 343.91 520.65 342.78 520.66 341.57L520.66 341.57Z" />
			<path id="Path" class="shp28" d="M582.06 156.49L534.58 129.11C533.09 128.26 531.25 128.35 529.83 129.32L529.83 129.32L519.44 135.32L524.3 141.89L526.09 143.97L526.09 190.97C526.08 193.78 527.58 196.36 530.01 197.76L565.5 218.26L565.87 220.23L573.12 230.36L584.26 223.82L584.26 223.82L584.26 223.82L584.26 223.82C585.32 223.16 585.96 222 585.95 220.75L585.95 163.59C586.01 160.7 584.52 158 582.06 156.49L582.06 156.49Z" />
			<path id="Path" class="shp29" d="M570.96 163.02L522.94 135.32C521.86 134.72 520.55 134.74 519.48 135.37C518.42 135.99 517.76 137.12 517.75 138.36L517.75 195.83C517.71 198.64 519.18 201.25 521.59 202.67L569.58 230.44C570.7 231.08 572.08 231.08 573.19 230.43C574.31 229.78 574.99 228.59 574.99 227.3L574.99 170.14C575.02 167.21 573.49 164.49 570.96 163.02L570.96 163.02Z" />
			<path id="Path" class="shp30" d="M574.99 227.25L574.99 170.08C574.98 169.14 574.8 168.21 574.44 167.33L585.62 160.86C585.92 161.69 586.09 162.57 586.11 163.46L586.11 220.85C586.12 222.1 585.48 223.26 584.42 223.92L584.42 223.92L584.42 223.92L584.42 223.92L573.38 230.42C574.45 229.73 575.06 228.52 574.99 227.25L574.99 227.25Z" />
			<path id="Path" class="shp31" d="M423.38 157.33L375.91 129.91C374.42 129.06 372.56 129.14 371.15 130.12L371.15 130.12L360.76 136.12L365.62 142.7L367.41 144.78L367.41 191.81C367.41 194.61 368.9 197.2 371.33 198.59L406.85 219.11L407.22 221.09L414.44 231.25L425.59 224.7L425.59 224.7L425.59 224.7L425.59 224.7C426.64 224.04 427.28 222.88 427.28 221.63L427.28 164.47C427.35 161.56 425.86 158.84 423.38 157.33Z" />
			<path id="Path" class="shp32" d="M412.28 163.85L364.27 136.15C363.19 135.56 361.87 135.57 360.81 136.2C359.74 136.82 359.08 137.96 359.07 139.19L359.07 196.66C359.06 199.47 360.56 202.05 362.99 203.45L410.91 231.25C412.02 231.9 413.4 231.91 414.52 231.26C415.64 230.62 416.32 229.42 416.31 228.13L416.31 170.97C416.35 168.04 414.81 165.32 412.28 163.85L412.28 163.85Z" />
			<path id="Path" class="shp33" d="M416.31 228.08L416.31 170.92C416.3 169.97 416.12 169.04 415.77 168.16L426.91 161.74C427.22 162.58 427.38 163.45 427.41 164.34L427.41 221.5C427.41 222.75 426.77 223.91 425.72 224.57L425.72 224.57L425.72 224.57L425.72 224.57L414.52 231.25C415.66 230.61 416.35 229.39 416.31 228.08L416.31 228.08Z" />
			<path id="Shape" fill-rule="evenodd" class="shp5" d="M375.49 190.51L369.31 186.95C369.08 186.81 368.94 186.58 368.92 186.32L368.92 159.07C368.92 158.89 369.05 158.89 369.23 158.89C372.16 160.14 375.01 161.58 377.75 163.2C381.11 165.05 384.04 167.58 386.35 170.63C388.24 173.06 389.32 176.02 389.44 179.1C389.44 181.7 388.56 183.67 386.85 184.3C384.74 185.08 381.55 184.27 377.6 181.98C376.95 181.62 376.35 181.23 375.86 180.89L375.86 190.35C375.86 190.56 375.67 190.64 375.49 190.51ZM377.54 176.4C380.66 178.19 382.53 177.75 382.53 175.15C382.24 172.42 380.54 170.04 378.04 168.89C377.33 168.47 376.61 168.1 375.86 167.77L375.86 175.31C376.4 175.7 376.96 176.07 377.54 176.4Z" />
			<path id="Path" class="shp5" d="M400.72 192.09C398.12 189.73 397.73 189.05 397.73 188.43C397.73 187.34 398.98 187.91 399.73 188.43C401.28 189.39 402.68 190.57 403.89 191.94C403.97 192.05 404.09 192.12 404.23 192.14C404.29 192.2 404.38 192.2 404.44 192.14L405.55 188.48C405.6 188.27 405.51 188.06 405.35 187.93C403.63 186.14 401.67 184.61 399.53 183.36C394.49 180.48 390.98 181.28 390.98 185.39C390.98 187.34 391.94 190.58 396.95 195.21C399.37 197.42 399.55 197.99 399.55 198.69C399.55 199.39 399.55 199.99 397.27 198.69C395.33 197.45 393.58 195.95 392.07 194.22C391.98 194.12 391.86 194.04 391.73 194.01C391.66 193.96 391.56 193.96 391.5 194.01L390.41 197.83C390.37 198.03 390.44 198.24 390.59 198.38C392.53 200.44 394.77 202.19 397.24 203.58C402.85 206.82 406.33 206.17 406.33 201.96C406.33 198.72 404.62 195.68 400.72 192.09Z" />
			<path id="Path" class="shp34" d="M319.45 46.48L272 19.1C270.51 18.25 268.66 18.33 267.25 19.31L267.25 19.31L256.85 25.31L261.69 31.88L263.51 33.96L263.51 80.96C263.5 83.76 265 86.35 267.43 87.74L302.92 108.3L303.29 110.27L310.53 120.4L321.68 113.86L321.68 113.86L321.68 113.86L321.68 113.86C322.75 113.22 323.4 112.06 323.4 110.82L323.4 53.65C323.46 50.73 321.95 47.99 319.45 46.48L319.45 46.48Z" />
			<path id="Path" class="shp35" d="M308.21 53.13L260.2 25.43C259.12 24.84 257.8 24.86 256.74 25.48C255.67 26.1 255.01 27.24 255 28.47L255 85.87C254.99 88.67 256.49 91.26 258.92 92.65L306.94 120.43C308.05 121.06 309.42 121.06 310.54 120.42C311.65 119.78 312.34 118.59 312.34 117.31L312.34 60.15C312.33 57.24 310.75 54.56 308.21 53.13Z" />
			<g id="usa-mapРесурс 1">
				<g id="_Группа_">
					<g id="_Группа_2">
						<g id="_Группа_3">
							<path id="_Контур_4" class="shp36" d="M278.16 76.88L278.16 76.88L278.16 77C278.16 77 278.16 77 278.28 77L278.16 77L278.16 76.88Z" />
						</g>
						<path id="_Составной_контур_2" class="shp36" d="M278.48 76.92L278.48 76.92L278.48 76.92L278.48 76.92L278.48 76.92L278.48 77.04L278.48 77.04L278.48 76.92L278.48 76.92L278.48 76.92L278.48 76.92L278.48 76.92L278.48 76.92Z" />
						<path id="_Составной_контур_3" class="shp36" d="M278.58 77.04L278.58 77.04L278.58 77.04L278.58 77.04L278.58 76.9L278.58 76.9L278.58 76.9L278.58 77.04Z" />
						<path id="_Составной_контур_8" class="shp36" d="M279.14 77.4L279.14 77.4L279.14 77.4L279.14 77.4L279.14 77.4L279.14 77.4L279.14 77.4L279.14 77.4L279.14 77.2L279.14 77.2L279.14 77.4Z" />
					</g>
					<g id="_Группа_4">
						<path id="_Составной_контур_11" class="shp36" d="M276.8 76.1L276.8 76.1L276.8 76.1L276.8 76.1C276.8 76.1 276.8 76.1 276.8 75.98L276.8 75.98L276.8 75.98L276.8 75.98L276.8 75.98L276.8 75.98C276.8 75.98 276.8 75.98 276.8 76.08C276.8 76.18 276.8 76.08 276.8 76.08L276.8 76.1Z" />
						<path id="_Составной_контур_14" class="shp36" d="M277.24 76.38L277.24 76.38L277.24 76.38L277.24 76.38L277.24 76.48L277.24 76.48L277.24 76.34L277.24 76.34L277.24 76.34L277.24 76.38Z" />
						<path id="_Составной_контур_18" class="shp36" d="M277.82 76.76L277.82 76.76L277.82 76.6L277.82 76.6L277.82 76.74L277.82 76.74L277.82 76.74L277.82 76.86L277.82 76.86L277.82 76.76Z" />
					</g>
				</g>
				<path id="Shape" fill-rule="evenodd" class="shp37" d="M263 69.66C264.38 73.53 267.03 76.77 270.49 78.83C274.9 81.45 277.92 80.83 277.92 75.5L277.92 57.96L272.93 55L272.93 72.54C272.93 75.12 271.9 75.16 270.26 74.18C268.76 73.08 267.66 71.49 267.14 69.66L263 69.66ZM280.63 79.62L280.69 79.62C280.67 79.57 280.65 79.53 280.63 79.49M280.69 79.62C282.47 84.06 285.65 87.77 289.72 90.15C294.46 93.09 298 92.64 298 88.01C298 83.73 295.6 80.41 291.36 76.01L290.11 74.71C287.98 72.5 287.05 71.01 287.05 69.77C287.05 68.53 287.98 68.13 289.43 68.98C290.94 69.92 292.08 71.38 292.64 73.09L296.53 72.84C295.17 69.3 292.66 66.36 289.43 64.51C284.98 61.86 282.15 62.78 282.15 66.96C282.15 71.13 284.53 74.54 288.21 78.27L289.45 79.57C291.73 81.96 293.09 83.67 293.09 85.14C293.09 86.61 291.77 86.91 289.7 85.67C287.46 84.26 285.73 82.13 284.77 79.62L280.69 79.62Z" />
			</g>
			<path id="Path" class="shp38" d="M312.41 117.26L312.41 60.1C312.38 59.16 312.2 58.22 311.86 57.34L322.98 50.93C323.31 51.75 323.48 52.63 323.5 53.52L323.5 110.69C323.5 111.93 322.85 113.09 321.78 113.73L321.78 113.73L321.78 113.73L321.78 113.73L310.74 120.22C311.77 119.58 312.39 118.47 312.41 117.26L312.41 117.26Z" />
			<path id="Path" class="shp5" d="M533.39 159.38C532.76 160.3 532.48 161.42 532.61 162.52L532.61 169.56C532.61 170.86 532.19 171.56 531.36 171.67C530.09 171.62 528.85 171.2 527.8 170.47L527.8 175.25C529.17 176 530.37 176.99 531.36 178.19C532.19 179.25 532.63 180.56 532.61 181.91L532.61 188.71C532.57 190.11 532.84 191.49 533.39 192.77C533.97 194.01 534.8 195.13 535.83 196.04C537.25 197.31 538.81 198.41 540.48 199.31L540.48 194.87C539.45 194.31 538.57 193.52 537.88 192.56C537.44 191.77 537.2 190.87 537.21 189.96L537.21 183.21C537.03 180.28 535.43 177.63 532.92 176.11L532.92 175.85C535.75 177 537.18 176.22 537.24 173.46L537.24 166.97C537.24 165.9 537.47 165.28 537.94 165.04C538.4 164.81 539.26 165.04 540.53 165.74L540.53 161.09C539.1 160.18 537.54 159.48 535.91 159.02C535.07 158.65 534.1 158.79 533.39 159.38L533.39 159.38Z" />
			<path id="Path" class="shp5" d="M560.23 188.35C559.43 187.35 559 186.1 559.01 184.82L559.01 177.77C559.07 175.73 558.45 173.73 557.24 172.08C555.56 170.06 553.48 168.39 551.14 167.17L551.14 171.7C552.17 172.26 553.05 173.05 553.73 174.01C554.18 174.8 554.42 175.7 554.41 176.61L554.41 183.1C554.58 186.12 556.2 188.87 558.75 190.48L558.75 190.74C557.76 190.21 556.6 190.1 555.53 190.43C554.77 190.79 554.38 191.62 554.38 193.03L554.38 199.7C554.38 200.77 554.18 201.42 553.71 201.65C553.24 201.89 552.38 201.65 551.11 200.95L551.11 205.47C552.91 206.79 555.05 207.54 557.27 207.66C558.44 207.42 559.03 206.2 559.03 203.97L559.03 197.18C559.03 195.76 559.45 195 560.26 194.87C561.54 194.89 562.79 195.3 563.84 196.04L563.84 191.26C562.46 190.53 561.24 189.54 560.23 188.35L560.23 188.35Z" />
			<path id="Path" class="shp16" d="M469.47 286.67L484.33 302.83L484.36 298.7L474.1 287.92L484.39 288.38L484.39 284.25L469.47 284.2L469.47 286.67L469.47 286.67Z" />
			<path id="Path" class="shp16" d="M485.87 307.22L490.02 309.61L498.29 289.11L494.1 286.72L485.87 307.22L485.87 307.22Z" />
			<path id="Path" class="shp16" d="M499.72 293.11L499.72 297.24L509.98 308.62L499.69 307.56L499.66 311.69L514.6 312.73L514.6 310.26L499.72 293.11L499.72 293.11Z" />
			<path id="Path" class="shp35" d="M192.83 211.19L192.83 213.97L204.52 220.7L204.52 217.92L192.83 211.19L192.83 211.19Z" />
			<path id="Path" class="shp39" d="M192.83 216.26L192.83 219.04L204.52 225.79L204.52 223.01L192.83 216.26L192.83 216.26Z" />
			<path id="Path" class="shp39" d="M192.83 221.35L192.83 224.13L204.52 230.86L204.52 228.08L192.83 221.35L192.83 221.35Z" />
			<path id="Path" class="shp39" d="M281.02 280.07L281.02 277.29L208.89 235.69L208.89 238.47L281.02 280.07L281.02 280.07Z" />
			<path id="Path" class="shp39" d="M192.83 226.41L192.83 229.2L204.52 235.95L204.52 233.17L192.83 226.41L192.83 226.41Z" />
			<path id="Path" class="shp39" d="M192.83 231.51L192.83 234.29L204.52 241.02L204.52 238.24L192.83 231.51L192.83 231.51Z" />
			<path id="Path" class="shp26" d="M281.02 285.14L281.02 282.36L208.89 240.78L208.89 243.54L281.02 285.14L281.02 285.14Z" />
			<path id="Path" class="shp39" d="M192.83 246.73L192.83 249.51L204.52 256.27L204.52 253.49L192.83 246.73L192.83 246.73Z" />
			<path id="Path" class="shp35" d="M192.83 251.83L192.83 254.61L204.52 261.34L204.52 258.56L192.83 251.83L192.83 251.83Z" />
			<path id="Path" class="shp39" d="M192.83 272.14L192.83 274.92L204.52 281.68L204.52 278.87L192.83 272.14L192.83 272.14Z" />
			<path id="Path" class="shp39" d="M192.83 277.24L192.83 280.02L204.52 286.75L204.52 283.97L192.83 277.24L192.83 277.24Z" />
			<path id="Path" class="shp26" d="M254.39 312.73L208.89 286.49L208.89 289.27L254.39 315.51L254.39 312.73L254.39 312.73Z" />
			<path id="Path" class="shp39" d="M256.78 314.11L256.78 316.91L281.02 330.87L281.02 328.09L256.78 314.11L256.78 314.11Z" />
			<path id="Path" class="shp39" d="M231.75 294.59L208.89 281.42L208.89 284.2L231.75 297.37L231.75 294.59L231.75 294.59Z" />
			<path id="Path" class="shp39" d="M234.14 296L234.14 298.75L281.02 325.8L281.02 323.02L234.14 296L234.14 296Z" />
			<path id="Path" class="shp39" d="M274.83 304.21L274.83 306.99L281.02 310.55L281.02 307.77L274.83 304.21L274.83 304.21Z" />
			<path id="Path" class="shp3" d="M241.29 279.78L208.89 261.1L208.89 263.88L241.29 282.56L241.29 279.78L241.29 279.78Z" />
			<path id="Path" class="shp39" d="M228.01 231.48L208.89 220.44L208.89 223.22L228.01 234.26L228.01 231.48L228.01 231.48Z" />
			<path id="Path" class="shp39" d="M259.37 249.57L230.43 232.86L230.43 235.64L259.37 252.35L259.37 249.57L259.37 249.57Z" />
			<path id="Path" class="shp39" d="M242.49 244.91L222.11 233.14L222.11 235.92L242.49 247.69L242.49 244.91L242.49 244.91Z" />
			<path id="Path" class="shp3" d="M263.9 257.23L244.9 246.29L244.9 249.07L263.9 260.04L263.9 257.23L263.9 257.23Z" />
			<path id="Path" class="shp39" d="M266.29 258.63L266.29 261.41L281.02 269.91L281.02 267.13L266.29 258.63L266.29 258.63Z" />
			<path id="Path" class="shp3" d="M212.66 232.78L212.66 235.56L228.01 244.42L228.01 241.64L212.66 232.78L212.66 232.78Z" />
			<path id="Path" class="shp39" d="M274.99 268.74L230.43 243.02L230.43 245.8L274.99 271.52L274.99 268.74L274.99 268.74Z" />
			<path id="Path" class="shp39" d="M249.47 269.26L220.35 252.45L220.35 255.23L249.47 272.04L249.47 269.26L249.47 269.26Z" />
			<path id="Path" class="shp39" d="M274.99 283.97L251.86 270.64L251.86 273.42L274.99 286.75L274.99 283.97L274.99 283.97Z" />
			<path id="Path" class="shp39" d="M272.44 297.74L243.71 281.16L243.71 283.94L272.44 300.52L272.44 297.74L272.44 297.74Z" />
			<path id="Path" class="shp26" d="M256.78 293.79L256.78 296.57L272.44 305.61L272.44 302.83L256.78 293.79L256.78 293.79Z" />
			<path id="Path" class="shp39" d="M214.53 269.42L208.89 266.17L208.89 268.95L214.53 272.2L214.53 269.42L214.53 269.42Z" />
			<path id="Path" class="shp39" d="M225.1 275.52L225.1 278.3L254.39 295.19L254.39 292.41L225.1 275.52L225.1 275.52Z" />
			<path id="Path" class="shp39" d="M222.71 274.15L216.94 270.82L216.94 273.6L222.71 276.93L222.71 274.15L222.71 274.15Z" />
			<path id="Path" class="shp39" d="M248.98 294.36L216.94 275.89L216.94 278.67L248.98 297.14L248.98 294.36L248.98 294.36Z" />
			<path id="Path" class="shp39" d="M286.08 265L286.08 265.75L289.31 267.62L289.31 266.84L286.08 265L286.08 265Z" />
			<path id="Path" class="shp39" d="M286.08 266.4L286.08 267.16L289.31 269.03L289.31 268.25L286.08 266.4L286.08 266.4Z" />
			<path id="Path" class="shp39" d="M286.08 267.81L286.08 268.56L289.31 270.43L289.31 269.65L286.08 267.81L286.08 267.81Z" />
			<path id="Path" class="shp39" d="M310.38 283.97L310.38 283.21L290.5 271.75L290.5 272.51L310.38 283.97L310.38 283.97Z" />
			<path id="Path" class="shp39" d="M286.08 269.21L286.08 269.96L289.31 271.81L289.31 271.05L286.08 269.21L286.08 269.21Z" />
			<path id="Path" class="shp39" d="M286.08 270.59L286.08 271.37L289.31 273.21L289.31 272.46L286.08 270.59L286.08 270.59Z" />
			<path id="Path" class="shp39" d="M310.38 285.37L310.38 284.62L290.5 273.16L290.5 273.91L310.38 285.37L310.38 285.37Z" />
			<path id="Path" class="shp39" d="M286.08 274.8L286.08 275.57L289.31 277.42L289.31 276.67L286.08 274.8L286.08 274.8Z" />
			<path id="Path" class="shp39" d="M286.08 276.2L286.08 276.95L289.31 278.82L289.31 278.04L286.08 276.2L286.08 276.2Z" />
			<path id="Path" class="shp39" d="M286.08 281.78L286.08 282.56L289.31 284.43L289.31 283.66L286.08 281.78L286.08 281.78Z" />
			<path id="Path" class="shp39" d="M286.08 283.19L286.08 283.97L289.31 285.81L289.31 285.06L286.08 283.19L286.08 283.19Z" />
			<path id="Path" class="shp39" d="M303.05 292.98L290.5 285.76L290.5 286.51L303.05 293.74L303.05 292.98L303.05 292.98Z" />
			<path id="Path" class="shp39" d="M303.7 293.37L303.7 294.13L310.38 297.97L310.38 297.22L303.7 293.37L303.7 293.37Z" />
			<path id="Path" class="shp39" d="M296.82 287.99L290.5 284.36L290.5 285.11L296.82 288.75L296.82 287.99L296.82 287.99Z" />
			<path id="Path" class="shp39" d="M297.46 288.36L297.46 289.14L310.38 296.57L310.38 295.82L297.46 288.36L297.46 288.36Z" />
			<path id="Path" class="shp39" d="M308.69 290.64L308.69 291.4L310.38 292.39L310.38 291.61L308.69 290.64L308.69 290.64Z" />
			<path id="Path" class="shp39" d="M299.44 283.89L290.5 278.74L290.5 279.52L299.44 284.67L299.44 283.89L299.44 283.89Z" />
			<path id="Path" class="shp39" d="M295.78 270.59L290.5 267.55L290.5 268.33L295.78 271.37L295.78 270.59L295.78 270.59Z" />
			<path id="Path" class="shp39" d="M304.43 275.57L296.43 270.98L296.43 271.73L304.43 276.33L304.43 275.57L304.43 275.57Z" />
			<path id="Path" class="shp39" d="M299.75 274.3L294.14 271.05L294.14 271.81L299.75 275.05L299.75 274.3L299.75 274.3Z" />
			<path id="Path" class="shp39" d="M305.65 277.68L300.43 274.67L300.43 275.44L305.65 278.46L305.65 277.68L305.65 277.68Z" />
			<path id="Path" class="shp39" d="M306.33 278.07L306.33 278.85L310.38 281.19L310.38 280.41L306.33 278.07L306.33 278.07Z" />
			<path id="Path" class="shp39" d="M291.54 270.95L291.54 271.73L295.78 274.15L295.78 273.39L291.54 270.95L291.54 270.95Z" />
			<path id="Path" class="shp39" d="M308.72 280.85L296.43 273.78L296.43 274.54L308.72 281.63L308.72 280.85L308.72 280.85Z" />
			<path id="Path" class="shp39" d="M301.67 281.01L293.67 276.38L293.67 277.13L301.67 281.76L301.67 281.01L301.67 281.01Z" />
			<path id="Path" class="shp39" d="M308.72 285.06L302.35 281.39L302.35 282.15L308.72 285.81L308.72 285.06L308.72 285.06Z" />
			<path id="Path" class="shp39" d="M308.01 288.85L300.09 284.28L300.09 285.06L308.01 289.63L308.01 288.85L308.01 288.85Z" />
			<path id="Path" class="shp39" d="M303.7 287.76L303.7 288.54L308.01 291.01L308.01 290.25L303.7 287.76L303.7 287.76Z" />
			<path id="Path" class="shp39" d="M292.06 281.06L290.5 280.15L290.5 280.93L292.06 281.81L292.06 281.06L292.06 281.06Z" />
			<path id="Path" class="shp39" d="M294.97 282.72L294.97 283.5L303.05 288.15L303.05 287.37L294.97 282.72L294.97 282.72Z" />
			<path id="Path" class="shp39" d="M294.32 282.36L292.71 281.42L292.71 282.2L294.32 283.11L294.32 282.36L294.32 282.36Z" />
			<path id="Path" class="shp39" d="M301.54 287.92L292.71 282.82L292.71 283.6L301.54 288.7L301.54 287.92L301.54 287.92Z" />
			<path id="Path" class="shp39" d="M286.08 288.7L286.08 289.45L289.31 291.32L289.31 290.54L286.08 288.7L286.08 288.7Z" />
			<path id="Path" class="shp39" d="M286.08 290.07L286.08 290.85L289.31 292.72L289.31 291.94L286.08 290.07L286.08 290.07Z" />
			<path id="Path" class="shp39" d="M286.08 291.48L286.08 292.26L289.31 294.1L289.31 293.35L286.08 291.48L286.08 291.48Z" />
			<path id="Path" class="shp39" d="M310.38 307.66L310.38 306.91L290.5 295.45L290.5 296.21L310.38 307.66L310.38 307.66Z" />
			<path id="Path" class="shp39" d="M286.08 292.88L286.08 293.66L289.31 295.5L289.31 294.75L286.08 292.88L286.08 292.88Z" />
			<path id="Path" class="shp39" d="M286.08 294.28L286.08 295.06L289.31 296.91L289.31 296.15L286.08 294.28L286.08 294.28Z" />
			<path id="Path" class="shp39" d="M310.38 309.07L310.38 308.31L290.5 296.83L290.5 297.61L310.38 309.07L310.38 309.07Z" />
			<path id="Path" class="shp39" d="M286.08 298.49L286.08 299.24L289.31 301.12L289.31 300.34L286.08 298.49L286.08 298.49Z" />
			<path id="Path" class="shp39" d="M286.08 299.89L286.08 300.65L289.31 302.52L289.31 301.74L286.08 299.89L286.08 299.89Z" />
			<path id="Path" class="shp39" d="M286.08 305.48L286.08 306.26L289.31 308.11L289.31 307.35L286.08 305.48L286.08 305.48Z" />
			<path id="Path" class="shp39" d="M286.08 306.88L286.08 307.66L289.31 309.51L289.31 308.75L286.08 306.88L286.08 306.88Z" />
			<path id="Path" class="shp39" d="M303.05 316.68L290.5 309.43L290.5 310.21L303.05 317.43L303.05 316.68L303.05 316.68Z" />
			<path id="Path" class="shp39" d="M303.7 317.04L303.7 317.82L310.38 321.67L310.38 320.89L303.7 317.04L303.7 317.04Z" />
			<path id="Path" class="shp39" d="M296.82 311.66L290.5 308.05L290.5 308.81L296.82 312.44L296.82 311.66L296.82 311.66Z" />
			<path id="Path" class="shp39" d="M297.46 312.05L297.46 312.81L310.38 320.27L310.38 319.51L297.46 312.05L297.46 312.05Z" />
			<path id="Path" class="shp39" d="M308.69 314.32L308.69 315.09L310.38 316.06L310.38 315.3L308.69 314.32L308.69 314.32Z" />
			<path id="Path" class="shp39" d="M299.44 307.59L290.5 302.44L290.5 303.19L299.44 308.36L299.44 307.59L299.44 307.59Z" />
			<path id="Path" class="shp39" d="M295.78 294.28L290.5 291.24L290.5 292L295.78 295.04L295.78 294.28L295.78 294.28Z" />
			<path id="Path" class="shp39" d="M304.43 299.27L296.43 294.67L296.43 295.43L304.43 300.02L304.43 299.27L304.43 299.27Z" />
			<path id="Path" class="shp39" d="M299.75 297.97L294.14 294.75L294.14 295.5L299.75 298.75L299.75 297.97L299.75 297.97Z" />
			<path id="Path" class="shp39" d="M305.65 301.38L300.43 298.36L300.43 299.14L305.65 302.15L305.65 301.38L305.65 301.38Z" />
			<path id="Path" class="shp39" d="M306.33 301.77L306.33 302.52L310.38 304.86L310.38 304.1L306.33 301.77L306.33 301.77Z" />
			<path id="Path" class="shp39" d="M291.54 294.65L291.54 295.4L295.78 297.84L295.78 297.09L291.54 294.65L291.54 294.65Z" />
			<path id="Path" class="shp39" d="M308.72 304.55L296.43 297.45L296.43 298.23L308.72 305.3L308.72 304.55L308.72 304.55Z" />
			<path id="Path" class="shp39" d="M301.67 304.7L293.67 300.05L293.67 300.83L301.67 305.45L301.67 304.7L301.67 304.7Z" />
			<path id="Path" class="shp39" d="M308.72 308.75L302.35 305.07L302.35 305.84L308.72 309.51L308.72 308.75L308.72 308.75Z" />
			<path id="Path" class="shp39" d="M308.01 312.55L300.09 307.98L300.09 308.73L308.01 313.3L308.01 312.55L308.01 312.55Z" />
			<path id="Path" class="shp39" d="M303.7 311.46L303.7 312.21L308.01 314.7L308.01 313.95L303.7 311.46L303.7 311.46Z" />
			<path id="Path" class="shp39" d="M292.06 304.73L290.5 303.84L290.5 304.6L292.06 305.51L292.06 304.73L292.06 304.73Z" />
			<path id="Path" class="shp39" d="M294.97 306.42L294.97 307.17L303.05 311.85L303.05 311.07L294.97 306.42L294.97 306.42Z" />
			<path id="Path" class="shp39" d="M294.32 306.03L292.71 305.12L292.71 305.87L294.32 306.81L294.32 306.03L294.32 306.03Z" />
			<path id="Path" class="shp39" d="M301.54 311.61L292.71 306.52L292.71 307.27L301.54 312.37L301.54 311.61L301.54 311.61Z" />
			<path id="Path" class="shp39" d="M286.08 312.37L286.08 313.15L289.31 314.99L289.31 314.24L286.08 312.37L286.08 312.37Z" />
			<path id="Path" class="shp39" d="M286.08 313.77L286.08 314.55L289.31 316.39L289.31 315.64L286.08 313.77L286.08 313.77Z" />
			<path id="Path" class="shp39" d="M286.08 315.17L286.08 315.95L289.31 317.8L289.31 317.04L286.08 315.17L286.08 315.17Z" />
			<path id="Path" class="shp39" d="M310.38 331.36L310.38 330.58L290.5 319.12L290.5 319.9L310.38 331.36L310.38 331.36Z" />
			<path id="Path" class="shp39" d="M286.08 316.58L286.08 317.35L289.31 319.2L289.31 318.45L286.08 316.58L286.08 316.58Z" />
			<path id="Path" class="shp39" d="M286.08 317.98L286.08 318.73L289.31 320.6L289.31 319.82L286.08 317.98L286.08 317.98Z" />
			<path id="Path" class="shp39" d="M310.38 332.76L310.38 331.98L290.5 320.52L290.5 321.3L310.38 332.76L310.38 332.76Z" />
			<path id="Path" class="shp39" d="M286.08 322.19L286.08 322.94L289.31 324.79L289.31 324.03L286.08 322.19L286.08 322.19Z" />
			<path id="Path" class="shp39" d="M286.08 323.56L286.08 324.34L289.31 326.19L289.31 325.44L286.08 323.56L286.08 323.56Z" />
			<path id="Path" class="shp39" d="M286.08 329.18L286.08 329.93L289.31 331.8L289.31 331.02L286.08 329.18L286.08 329.18Z" />
			<path id="Path" class="shp39" d="M286.08 330.58L286.08 331.33L289.31 333.2L289.31 332.43L286.08 330.58L286.08 330.58Z" />
			<path id="Path" class="shp39" d="M303.05 340.35L290.5 333.13L290.5 333.91L303.05 341.13L303.05 340.35L303.05 340.35Z" />
			<path id="Path" class="shp39" d="M303.7 340.74L303.7 341.52L310.38 345.36L310.38 344.59L303.7 340.74L303.7 340.74Z" />
			<path id="Path" class="shp39" d="M296.82 335.36L290.5 331.72L290.5 332.5L296.82 336.14L296.82 335.36L296.82 335.36Z" />
			<path id="Path" class="shp39" d="M297.46 335.75L297.46 336.5L310.38 343.96L310.38 343.18L297.46 335.75L297.46 335.75Z" />
			<path id="Path" class="shp39" d="M308.69 338.01L308.69 338.77L310.38 339.75L310.38 339L308.69 338.01L308.69 338.01Z" />
			<path id="Path" class="shp39" d="M299.44 331.28L290.5 326.14L290.5 326.89L299.44 332.04L299.44 331.28L299.44 331.28Z" />
			<path id="Path" class="shp39" d="M295.78 317.98L290.5 314.94L290.5 315.69L295.78 318.73L295.78 317.98L295.78 317.98Z" />
			<path id="Path" class="shp39" d="M304.43 322.94L296.43 318.34L296.43 319.12L304.43 323.72L304.43 322.94L304.43 322.94Z" />
			<path id="Path" class="shp39" d="M299.75 321.67L294.14 318.42L294.14 319.2L299.75 322.42L299.75 321.67L299.75 321.67Z" />
			<path id="Path" class="shp39" d="M305.65 325.07L300.43 322.06L300.43 322.81L305.65 325.83L305.65 325.07L305.65 325.07Z" />
			<path id="Path" class="shp39" d="M306.33 325.44L306.33 326.22L310.38 328.55L310.38 327.8L306.33 325.44L306.33 325.44Z" />
			<path id="Path" class="shp39" d="M291.54 318.32L291.54 319.1L295.78 321.54L295.78 320.76L291.54 318.32L291.54 318.32Z" />
			<path id="Path" class="shp39" d="M308.72 328.24L296.43 321.15L296.43 321.9L308.72 329L308.72 328.24L308.72 328.24Z" />
			<path id="Path" class="shp39" d="M301.67 328.37L293.67 323.75L293.67 324.5L301.67 329.15L301.67 328.37L301.67 328.37Z" />
			<path id="Path" class="shp39" d="M308.72 332.43L302.35 328.76L302.35 329.52L308.72 333.2L308.72 332.43L308.72 332.43Z" />
			<path id="Path" class="shp39" d="M308.01 336.22L300.09 331.65L300.09 332.43L308.01 337L308.01 336.22L308.01 336.22Z" />
			<path id="Path" class="shp39" d="M303.7 335.15L303.7 335.91L308.01 338.4L308.01 337.62L303.7 335.15L303.7 335.15Z" />
			<path id="Path" class="shp39" d="M292.06 328.42L290.5 327.54L290.5 328.29L292.06 329.18L292.06 328.42L292.06 328.42Z" />
			<path id="Path" class="shp39" d="M294.97 330.11L294.97 330.87L303.05 335.52L303.05 334.76L294.97 330.11L294.97 330.11Z" />
			<path id="Path" class="shp39" d="M294.32 329.72L292.71 328.81L292.71 329.57L294.32 330.48L294.32 329.72L294.32 329.72Z" />
			<path id="Path" class="shp39" d="M301.54 335.31L292.71 330.22L292.71 330.97L301.54 336.06L301.54 335.31L301.54 335.31Z" />
			<path id="Path" class="shp39" d="M286.08 336.06L286.08 336.84L289.31 338.69L289.31 337.93L286.08 336.06L286.08 336.06Z" />
			<path id="Path" class="shp39" d="M286.08 337.47L286.08 338.22L289.31 340.09L289.31 339.31L286.08 337.47L286.08 337.47Z" />
			<path id="Path" class="shp39" d="M286.08 338.87L286.08 339.62L289.31 341.49L289.31 340.71L286.08 338.87L286.08 338.87Z" />
			<path id="Path" class="shp39" d="M310.38 355.06L310.38 354.28L290.5 342.82L290.5 343.6L310.38 355.06L310.38 355.06Z" />
			<path id="Path" class="shp39" d="M286.08 340.27L286.08 341.03L289.31 342.9L289.31 342.12L286.08 340.27L286.08 340.27Z" />
			<path id="Path" class="shp39" d="M286.08 341.68L286.08 342.43L289.31 344.27L289.31 343.52L286.08 341.68L286.08 341.68Z" />
			<path id="Path" class="shp39" d="M310.38 356.43L310.38 355.68L290.5 344.22L290.5 344.97L310.38 356.43L310.38 356.43Z" />
			<path id="Path" class="shp39" d="M286.08 345.86L286.08 346.64L289.31 348.48L289.31 347.73L286.08 345.86L286.08 345.86Z" />
			<path id="Path" class="shp39" d="M286.08 347.26L286.08 348.04L289.31 349.89L289.31 349.13L286.08 347.26L286.08 347.26Z" />
			<path id="Path" class="shp39" d="M308.69 361.71L308.69 362.46L310.38 363.45L310.38 362.67L308.69 361.71L308.69 361.71Z" />
			<path id="Path" class="shp39" d="M299.44 354.98L290.5 349.81L290.5 350.59L299.44 355.73L299.44 354.98L299.44 354.98Z" />
			<path id="Path" class="shp39" d="M295.78 341.65L290.5 338.61L290.5 339.39L295.78 342.43L295.78 341.65L295.78 341.65Z" />
			<path id="Path" class="shp39" d="M304.43 346.64L296.43 342.04L296.43 342.82L304.43 347.42L304.43 346.64L304.43 346.64Z" />
			<path id="Path" class="shp39" d="M299.75 345.36L294.14 342.12L294.14 342.9L299.75 346.12L299.75 345.36L299.75 345.36Z" />
			<path id="Path" class="shp39" d="M305.65 348.77L300.43 345.73L300.43 346.51L305.65 349.52L305.65 348.77L305.65 348.77Z" />
			<path id="Path" class="shp39" d="M306.33 349.13L306.33 349.91L310.38 352.25L310.38 351.47L306.33 349.13L306.33 349.13Z" />
			<path id="Path" class="shp39" d="M291.54 342.01L291.54 342.79L295.78 345.23L295.78 344.46L291.54 342.01L291.54 342.01Z" />
			<path id="Path" class="shp39" d="M308.72 351.91L296.43 344.84L296.43 345.6L308.72 352.69L308.72 351.91L308.72 351.91Z" />
			<path id="Path" class="shp39" d="M301.67 352.07L293.67 347.44L293.67 348.2L301.67 352.82L301.67 352.07L301.67 352.07Z" />
			<path id="Path" class="shp39" d="M308.72 356.12L302.35 352.46L302.35 353.21L308.72 356.9L308.72 356.12L308.72 356.12Z" />
			<path id="Path" class="shp39" d="M308.01 359.92L300.09 355.34L300.09 356.12L308.01 360.69L308.01 359.92L308.01 359.92Z" />
			<path id="Path" class="shp39" d="M303.7 358.82L303.7 359.6L308.01 362.07L308.01 361.32L303.7 358.82L303.7 358.82Z" />
			<path id="Path" class="shp39" d="M292.06 352.12L290.5 351.21L290.5 351.99L292.06 352.87L292.06 352.12L292.06 352.12Z" />
			<path id="Path" class="shp39" d="M294.97 353.78L294.97 354.56L303.05 359.21L303.05 358.46L294.97 353.78L294.97 353.78Z" />
			<path id="Path" class="shp39" d="M294.32 353.42L292.71 352.48L292.71 353.26L294.32 354.17L294.32 353.42L294.32 353.42Z" />
			<path id="Path" class="shp39" d="M301.54 358.98L292.71 353.89L292.71 354.67L301.54 359.76L301.54 358.98L301.54 358.98Z" />
			<path id="Path" class="shp26" d="M185.48 206.85L181.63 204.64C181.55 204.58 181.44 204.58 181.34 204.63C181.25 204.68 181.19 204.77 181.19 204.87L181.19 209.5C181.2 209.73 181.33 209.93 181.53 210.05L185.37 212.25C185.46 212.3 185.56 212.3 185.65 212.25C185.73 212.2 185.78 212.12 185.79 212.02L185.79 207.42C185.8 207.19 185.68 206.97 185.48 206.85Z" />
			<path id="Path" class="shp26" d="M185.48 213.76L181.63 211.53C181.54 211.48 181.43 211.49 181.34 211.54C181.26 211.59 181.2 211.68 181.19 211.79L181.19 216.39C181.19 216.62 181.32 216.83 181.53 216.93L185.37 219.17C185.46 219.21 185.57 219.21 185.66 219.15C185.74 219.1 185.79 219.01 185.79 218.91L185.79 214.31C185.8 214.08 185.68 213.86 185.48 213.76L185.48 213.76Z" />
			<path id="Path" class="shp26" d="M185.48 220.65L181.63 218.41C181.54 218.37 181.43 218.37 181.34 218.43C181.26 218.48 181.2 218.57 181.19 218.67L181.19 223.27C181.19 223.5 181.32 223.72 181.53 223.82L185.37 226.05C185.46 226.1 185.57 226.09 185.66 226.04C185.74 225.99 185.79 225.89 185.79 225.79L185.79 221.22C185.8 220.98 185.68 220.76 185.48 220.65Z" />
			<path id="Path" class="shp26" d="M185.48 227.53L181.63 225.32C181.55 225.27 181.44 225.26 181.34 225.31C181.25 225.36 181.19 225.45 181.19 225.56L181.19 230.18C181.2 230.4 181.33 230.61 181.53 230.7L185.37 232.94C185.46 232.98 185.56 232.98 185.65 232.93C185.73 232.88 185.78 232.8 185.79 232.7L185.79 228.1C185.8 227.87 185.68 227.65 185.48 227.53Z" />
			<path id="Path" class="shp26" d="M185.48 234.44L181.63 232.21C181.54 232.17 181.43 232.17 181.34 232.22C181.26 232.28 181.2 232.37 181.19 232.47L181.19 237.07C181.2 237.29 181.33 237.5 181.53 237.61L185.37 239.82C185.46 239.88 185.57 239.89 185.66 239.84C185.75 239.79 185.8 239.69 185.79 239.59L185.79 234.99C185.8 234.76 185.68 234.55 185.48 234.44Z" />
			<path id="Path" class="shp26" d="M185.48 241.33L181.5 239.04C181.41 239 181.3 239.01 181.21 239.06C181.13 239.11 181.07 239.2 181.06 239.3L181.06 243.9C181.06 244.13 181.19 244.35 181.4 244.45L185.24 246.68C185.33 246.73 185.44 246.72 185.53 246.67C185.61 246.62 185.66 246.52 185.66 246.42L185.66 241.9C185.7 241.69 185.63 241.48 185.48 241.33Z" />
			<path id="Path" class="shp26" d="M185.48 248.21L181.63 246.01C181.55 245.95 181.44 245.94 181.34 245.99C181.25 246.04 181.19 246.14 181.19 246.24L181.19 250.84C181.19 251.07 181.32 251.28 181.53 251.38L185.37 253.62C185.46 253.66 185.57 253.66 185.66 253.61C185.74 253.55 185.79 253.46 185.79 253.36L185.79 248.79C185.8 248.55 185.68 248.34 185.48 248.21Z" />
			<path id="Path" class="shp26" d="M185.48 255.13L181.63 252.89C181.55 252.83 181.44 252.83 181.34 252.88C181.25 252.93 181.19 253.02 181.19 253.13L181.19 257.75C181.2 257.98 181.33 258.18 181.53 258.3L185.37 260.5C185.46 260.57 185.57 260.58 185.66 260.52C185.75 260.47 185.8 260.37 185.79 260.27L185.79 255.67C185.8 255.44 185.68 255.23 185.48 255.13L185.48 255.13Z" />
			<path id="Path" class="shp26" d="M185.48 262.01L181.5 259.83C181.41 259.79 181.3 259.79 181.21 259.84C181.13 259.9 181.07 259.99 181.06 260.09L181.06 264.69C181.06 264.92 181.19 265.13 181.4 265.23L185.24 267.47C185.33 267.51 185.44 267.51 185.53 267.46C185.61 267.4 185.66 267.31 185.66 267.21L185.66 262.61C185.71 262.39 185.64 262.16 185.48 262.01L185.48 262.01Z" />
			<path id="Path" class="shp26" d="M185.48 268.9L181.63 266.69C181.55 266.63 181.44 266.63 181.34 266.68C181.25 266.72 181.19 266.82 181.19 266.92L181.19 271.52C181.19 271.75 181.32 271.97 181.53 272.07L185.37 274.3C185.46 274.35 185.57 274.34 185.66 274.29C185.74 274.24 185.79 274.14 185.79 274.04L185.79 269.47C185.8 269.24 185.68 269.02 185.48 268.9L185.48 268.9Z" />
			<path id="Path" class="shp26" d="M185.48 275.78L181.63 273.57C181.55 273.52 181.44 273.51 181.34 273.56C181.25 273.61 181.19 273.7 181.19 273.81L181.19 278.43C181.2 278.66 181.33 278.86 181.53 278.98L185.37 281.19C185.46 281.25 185.57 281.26 185.66 281.21C185.75 281.16 185.8 281.06 185.79 280.95L185.79 276.35C185.8 276.12 185.68 275.9 185.48 275.78Z" />
			<path id="Path" class="shp26" d="M185.48 282.69L181.63 280.46C181.54 280.42 181.43 280.42 181.34 280.47C181.26 280.53 181.2 280.62 181.19 280.72L181.19 285.32C181.19 285.55 181.32 285.76 181.53 285.86L185.37 288.1C185.46 288.14 185.57 288.14 185.66 288.09C185.74 288.03 185.79 287.94 185.79 287.84L185.79 283.21C185.79 283 185.67 282.79 185.48 282.69Z" />
			<g id="Group" style="opacity: 0.4">
				<path id="Path" class="shp0" d="M366.16 231.3L366.16 234.08L377.86 240.81L377.86 238.03L366.16 231.3L366.16 231.3Z" />
				<path id="Path" class="shp0" d="M366.16 236.37L366.16 239.15L377.86 245.9L377.86 243.1L366.16 236.37L366.16 236.37Z" />
				<path id="Path" class="shp0" d="M366.16 241.46L366.16 244.24L377.86 250.97L377.86 248.19L366.16 241.46L366.16 241.46Z" />
				<path id="Path" class="shp0" d="M454.35 300.18L454.35 297.4L382.25 255.8L382.25 258.58L454.35 300.18L454.35 300.18Z" />
				<path id="Path" class="shp0" d="M366.16 246.53L366.16 249.31L377.86 256.06L377.86 253.28L366.16 246.53L366.16 246.53Z" />
				<path id="Path" class="shp0" d="M366.16 251.62L366.16 254.4L377.86 261.13L377.86 258.35L366.16 251.62L366.16 251.62Z" />
				<path id="Path" class="shp0" d="M454.35 305.25L454.35 302.47L382.25 260.89L382.25 263.65L454.35 305.25L454.35 305.25Z" />
				<path id="Path" class="shp0" d="M366.16 266.84L366.16 269.65L377.86 276.38L377.86 273.6L366.16 266.84L366.16 266.84Z" />
				<path id="Path" class="shp0" d="M366.16 271.94L366.16 274.72L377.86 281.45L377.86 278.67L366.16 271.94L366.16 271.94Z" />
				<path id="Path" class="shp0" d="M366.16 292.26L366.16 295.04L377.86 301.79L377.86 299.01L366.16 292.26L366.16 292.26Z" />
				<path id="Path" class="shp0" d="M366.16 297.35L366.16 300.13L377.86 306.86L377.86 304.08L366.16 297.35L366.16 297.35Z" />
				<path id="Path" class="shp0" d="M427.74 332.84L382.25 306.6L382.25 309.4L427.74 335.62L427.74 332.84L427.74 332.84Z" />
				<path id="Path" class="shp0" d="M430.13 334.22L430.13 337.02L454.35 350.98L454.35 348.2L430.13 334.22L430.13 334.22Z" />
				<path id="Path" class="shp0" d="M405.11 314.7L382.25 301.53L382.25 304.31L405.11 317.49L405.11 314.7L405.11 314.7Z" />
				<path id="Path" class="shp0" d="M407.5 316.11L407.5 318.86L454.35 345.91L454.35 343.13L407.5 316.11L407.5 316.11Z" />
				<path id="Path" class="shp0" d="M448.19 324.32L448.19 327.1L454.35 330.66L454.35 327.88L448.19 324.32L448.19 324.32Z" />
				<path id="Path" class="shp0" d="M414.65 299.89L382.25 281.21L382.25 283.99L414.65 302.67L414.65 299.89L414.65 299.89Z" />
				<path id="Path" class="shp0" d="M401.37 251.59L382.25 240.55L382.25 243.33L401.37 254.37L401.37 251.59L401.37 251.59Z" />
				<path id="Path" class="shp0" d="M432.73 269.68L403.76 252.97L403.76 255.75L432.73 272.46L432.73 269.68L432.73 269.68Z" />
				<path id="Path" class="shp0" d="M415.84 265.03L395.47 253.26L395.47 256.04L415.84 267.81L415.84 265.03L415.84 265.03Z" />
				<path id="Path" class="shp0" d="M437.23 277.37L418.23 266.4L418.23 269.18L437.23 280.12L437.23 277.37L437.23 277.37Z" />
				<path id="Path" class="shp0" d="M439.62 278.74L439.62 281.52L454.35 290.02L454.35 287.24L439.62 278.74L439.62 278.74Z" />
				<path id="Path" class="shp0" d="M386.01 252.89L386.01 255.67L401.37 264.53L401.37 261.75L386.01 252.89L386.01 252.89Z" />
				<path id="Path" class="shp0" d="M448.35 288.85L403.76 263.13L403.76 265.91L448.35 291.63L448.35 288.85L448.35 288.85Z" />
				<path id="Path" class="shp0" d="M422.83 289.37L393.68 272.56L393.68 275.34L422.83 292.15L422.83 289.37L422.83 289.37Z" />
				<path id="Path" class="shp0" d="M448.35 304.08L425.22 290.75L425.22 293.53L448.35 306.88L448.35 304.08L448.35 304.08Z" />
				<path id="Path" class="shp0" d="M445.8 317.85L417.04 301.27L417.04 304.05L445.8 320.63L445.8 317.85L445.8 317.85Z" />
				<path id="Path" class="shp0" d="M430.13 313.9L430.13 316.68L445.8 325.72L445.8 322.94L430.13 313.9L430.13 313.9Z" />
				<path id="Path" class="shp0" d="M387.89 289.53L382.25 286.28L382.25 289.06L387.89 292.31L387.89 289.53L387.89 289.53Z" />
				<path id="Path" class="shp0" d="M398.43 295.63L398.43 298.41L427.74 315.3L427.74 312.52L398.43 295.63L398.43 295.63Z" />
				<path id="Path" class="shp0" d="M396.04 294.26L390.28 290.93L390.28 293.71L396.04 297.04L396.04 294.26L396.04 294.26Z" />
				<path id="Path" class="shp0" d="M422.31 314.47L390.28 296L390.28 298.78L422.31 317.25L422.31 314.47L422.31 314.47Z" />
			</g>
			<g id="Group" style="opacity: 0.4">
				<path id="Path" class="shp0" d="M473.58 57.16L473.58 59.94L485.27 66.67L485.27 63.89L473.58 57.16L473.58 57.16Z" />
				<path id="Path" class="shp0" d="M473.58 62.23L473.58 65.01L485.27 71.76L485.27 68.98L473.58 62.23L473.58 62.23Z" />
				<path id="Path" class="shp0" d="M473.58 67.32L473.58 70.1L485.27 76.83L485.27 74.05L473.58 67.32L473.58 67.32Z" />
				<path id="Path" class="shp0" d="M561.76 126.04L561.76 123.26L489.66 81.66L489.66 84.44L561.76 126.04L561.76 126.04Z" />
				<path id="Path" class="shp0" d="M473.58 72.41L473.58 75.19L485.27 81.92L485.27 79.14L473.58 72.41L473.58 72.41Z" />
				<path id="Path" class="shp0" d="M473.58 77.48L473.58 80.26L485.27 87.02L485.27 84.21L473.58 77.48L473.58 77.48Z" />
				<path id="Path" class="shp0" d="M561.76 131.14L561.76 128.36L489.66 86.76L489.66 89.54L561.76 131.14L561.76 131.14Z" />
				<path id="Path" class="shp0" d="M473.58 92.73L473.58 95.51L485.27 102.24L485.27 99.46L473.58 92.73L473.58 92.73Z" />
				<path id="Path" class="shp0" d="M473.58 97.8L473.58 100.58L485.27 107.34L485.27 104.56L473.58 97.8L473.58 97.8Z" />
				<path id="Path" class="shp0" d="M473.58 118.14L473.58 120.92L485.27 127.65L485.27 124.87L473.58 118.14L473.58 118.14Z" />
				<path id="Path" class="shp0" d="M473.58 123.21L473.58 125.99L485.27 132.75L485.27 129.94L473.58 123.21L473.58 123.21Z" />
				<path id="Path" class="shp0" d="M535.13 158.73L489.66 132.49L489.66 135.27L535.13 161.51L535.13 158.73L535.13 158.73Z" />
				<path id="Path" class="shp0" d="M537.55 160.11L537.55 162.89L561.76 176.87L561.76 174.09L537.55 160.11L537.55 160.11Z" />
				<path id="Path" class="shp0" d="M512.5 140.59L489.66 127.39L489.66 130.17L512.5 143.37L512.5 140.59L512.5 140.59Z" />
				<path id="Path" class="shp0" d="M514.89 141.97L514.89 144.75L561.76 171.77L561.76 168.99L514.89 141.97L514.89 141.97Z" />
				<path id="Path" class="shp0" d="M555.61 150.18L555.61 152.99L561.76 156.52L561.76 153.74L555.61 150.18L555.61 150.18Z" />
				<path id="Path" class="shp0" d="M522.06 125.76L489.66 107.08L489.66 109.86L522.06 128.54L522.06 125.76L522.06 125.76Z" />
				<path id="Path" class="shp0" d="M508.78 77.45L489.66 66.44L489.66 69.22L508.78 80.24L508.78 77.45L508.78 77.45Z" />
				<path id="Path" class="shp0" d="M540.12 95.54L511.17 78.83L511.17 81.61L540.12 98.32L540.12 95.54L540.12 95.54Z" />
				<path id="Path" class="shp0" d="M523.26 90.89L502.86 79.14L502.86 81.92L523.26 93.67L523.26 90.89L523.26 90.89Z" />
				<path id="Path" class="shp0" d="M544.64 103.23L525.65 92.27L525.65 95.05L544.64 106.01L544.64 103.23L544.64 103.23Z" />
				<path id="Path" class="shp0" d="M547.03 104.61L547.03 107.39L561.76 115.88L561.76 113.1L547.03 104.61L547.03 104.61Z" />
				<path id="Path" class="shp0" d="M493.4 78.75L493.4 81.53L508.78 90.39L508.78 87.61L493.4 78.75L493.4 78.75Z" />
				<path id="Path" class="shp0" d="M555.76 114.71L511.17 89.02L511.17 91.8L555.76 117.49L555.76 114.71L555.76 114.71Z" />
				<path id="Path" class="shp0" d="M530.22 115.23L501.09 98.42L501.09 101.2L530.22 118.01L530.22 115.23L530.22 115.23Z" />
				<path id="Path" class="shp0" d="M555.76 129.97L532.64 116.61L532.64 119.39L555.76 132.75L555.76 129.97L555.76 129.97Z" />
				<path id="Path" class="shp0" d="M553.19 143.74L524.45 127.16L524.45 129.94L553.19 146.52L553.19 143.74L553.19 143.74Z" />
				<path id="Path" class="shp0" d="M537.55 139.79L537.55 142.57L553.19 151.58L553.19 148.8L537.55 139.79L537.55 139.79Z" />
				<path id="Path" class="shp0" d="M495.3 115.42L489.66 112.17L489.66 114.95L495.3 118.2L495.3 115.42L495.3 115.42Z" />
				<path id="Path" class="shp0" d="M505.85 121.5L505.85 124.28L535.13 141.19L535.13 138.38L505.85 121.5L505.85 121.5Z" />
				<path id="Path" class="shp0" d="M503.46 120.12L497.69 116.79L497.69 119.57L503.46 122.9L503.46 120.12L503.46 120.12Z" />
				<path id="Path" class="shp0" d="M529.73 140.36L497.69 121.89L497.69 124.67L529.73 143.14L529.73 140.36L529.73 140.36Z" />
			</g>
			<path id="Path" class="shp14" d="M262.36 414.19C257.52 412.53 252.17 413.34 248.05 416.38C240.25 421.57 235.05 428.69 238.22 431.34C241.39 433.99 247.5 436.8 251.48 435.37C255.45 433.94 275.09 422.4 262.36 414.19Z" />
			<path id="Path" class="shp3" d="M425.82 383.87L364.6 418.56L325.58 395.98L386.79 361.32L425.82 383.87L425.82 383.87Z" />
			<path id="Path" class="shp40" d="M376.58 417.73L376.58 419.08L437.8 384.03L437.8 383.04L376.58 417.73L376.58 417.73Z" />
			<path id="Path" class="shp41" d="M437.8 383.04L376.58 417.73L337.58 395.15L398.77 360.49L437.8 383.04L437.8 383.04Z" />
			<path id="Path" class="shp42" d="M376.58 417.73L376.58 419.08L337.58 396.5L337.58 395.15L376.58 417.73L376.58 417.73Z" />
			<path id="Path" class="shp43" d="M398.36 364.18L421.92 377.77L420.91 378.36L397.32 364.77L398.36 364.18L398.36 364.18Z" />
			<path id="Path" class="shp43" d="M395.91 365.58L419.48 379.17L418.44 379.74L394.87 366.15L395.91 365.58L395.91 365.58Z" />
			<path id="Path" class="shp43" d="M390.22 368.8L422.68 387.53L421.64 388.11L389.18 369.37L390.22 368.8L390.22 368.8Z" />
			<path id="Path" class="shp43" d="M387.96 370.07L420.42 388.81L419.4 389.38L386.92 370.65L387.96 370.07L387.96 370.07Z" />
			<path id="Path" class="shp43" d="M385.73 371.35L418.18 390.08L417.14 390.65L384.69 371.92L385.73 371.35L385.73 371.35Z" />
			<path id="Path" class="shp43" d="M383.47 372.62L415.92 391.35L414.91 391.93L382.46 373.19L383.47 372.62L383.47 372.62Z" />
			<path id="Path" class="shp43" d="M381.23 373.89L413.69 392.63L412.65 393.23L380.19 374.49L381.23 373.89L381.23 373.89Z" />
			<path id="Path" class="shp43" d="M378.97 375.17L411.45 393.9L410.41 394.5L377.96 375.76L378.97 375.17L378.97 375.17Z" />
			<path id="Path" class="shp43" d="M376.74 376.44L409.19 395.17L408.15 395.77L375.7 377.04L376.74 376.44L376.74 376.44Z" />
			<path id="Path" class="shp43" d="M374.48 377.71L406.96 396.45L405.92 397.04L373.46 378.31L374.48 377.71L374.48 377.71Z" />
			<path id="Path" class="shp43" d="M372.24 378.99L404.7 397.72L403.66 398.32L371.2 379.58L372.24 378.99L372.24 378.99Z" />
			<path id="Path" class="shp43" d="M369.98 380.26L402.46 398.99L401.42 399.59L368.97 380.86L369.98 380.26L369.98 380.26Z" />
			<path id="Path" class="shp43" d="M367.75 381.53L400.2 400.29L399.16 400.86L366.71 382.13L367.75 381.53L367.75 381.53Z" />
			<path id="Path" class="shp43" d="M365.51 382.83L397.97 401.54L396.93 402.14L364.47 383.4L365.51 382.83L365.51 382.83Z" />
			<path id="Path" class="shp43" d="M363.25 384.11L395.71 402.84L394.67 403.41L362.21 384.68L363.25 384.11L363.25 384.11Z" />
			<path id="Path" class="shp43" d="M361.02 385.38L393.47 404.11L392.43 404.68L359.98 385.95L361.02 385.38L361.02 385.38Z" />
			<path id="Path" class="shp43" d="M358.76 386.65L391.21 405.39L390.2 405.96L357.72 387.22L358.76 386.65L358.76 386.65Z" />
			<path id="Path" class="shp11" d="M332.31 404.06L326.59 404.06L326.59 410.24L332.31 410.24C334.44 410.24 336.17 411.96 336.18 414.09L336.18 424.12C336.18 426.26 334.45 427.99 332.31 427.99L323.92 427.99L323.92 434.17L332.31 434.17C337.86 434.16 342.35 429.67 342.36 424.12L342.36 414.09C342.35 408.55 337.85 404.06 332.31 404.06L332.31 404.06Z" />
			<path id="Path" class="shp10" d="M330.18 400.66L330.18 435.42C330.18 440.8 322.12 445.17 312.22 445.17C302.32 445.17 294.27 440.8 294.27 435.42L294.27 400.66L330.18 400.66Z" />
			<path id="Path" class="shp5" d="M294.27 400.66C294.27 406.03 302.3 410.4 312.22 410.4C322.15 410.4 330.18 406.03 330.18 400.66C330.18 395.28 322.12 390.89 312.22 390.89C302.32 390.89 294.27 395.25 294.27 400.66Z" />
			<path id="Path" class="shp11" d="M297.85 400.53C297.85 404.74 304.27 408.17 312.22 408.17C320.17 408.17 326.59 404.74 326.59 400.53C326.59 396.32 320.15 392.89 312.22 392.89C304.3 392.89 297.85 396.32 297.85 400.53Z" />
			<path id="Path" class="shp9" d="M312.22 397.88C305.94 397.88 300.61 400.03 298.66 403.07C300.61 406.06 305.94 408.27 312.22 408.27C318.51 408.27 323.84 406.11 325.79 403.07C323.84 400.14 318.51 397.88 312.22 397.88Z" />
			<path id="Path" class="shp11" d="M319 409.67L319 444.46C322.09 443.86 324.99 442.51 327.45 440.54L327.45 405.77C325 407.75 322.1 409.08 319 409.67Z" />
		</g>
	</g>
</svg>